<svg width="0" height="0" class="hidden"><symbol fill="none" xmlns="http://www.w3.org/2000/svg" viewBox="0 0 11 12" id="ball"><path opacity=".1" fill-rule="evenodd" clip-rule="evenodd" d="M.114 5.727a5.342 5.342 0 1 1 10.683 0 5.342 5.342 0 0 1-10.683 0Z" fill="#fff"/><path fill-rule="evenodd" clip-rule="evenodd" d="M8.304 5.723a2.85 2.85 0 0 1-.834 2.012 2.878 2.878 0 0 1-1.44.775 2.855 2.855 0 0 1-3.2-1.68 2.835 2.835 0 0 1 .263-2.698 2.872 2.872 0 0 1 1.253-1.03 2.821 2.821 0 0 1 1.11-.224 2.875 2.875 0 0 1 1.108.224A2.86 2.86 0 0 1 8.246 5.15c.039.188.058.38.058.573ZM4.417 3.526a2.433 2.433 0 0 0-1.343 1.696c.065 0 1.078.014 2.247-.296a14.628 14.628 0 0 0-.904-1.4ZM5.522 5.3a8.89 8.89 0 0 1-2.498.346l-.002.077c0 .624.236 1.193.624 1.624-.001-.002.665-1.181 1.978-1.605l.096-.03a8.212 8.212 0 0 0-.198-.412Zm1.54-1.4a2.423 2.423 0 0 0-2.18-.538c.036.049.493.654.91 1.417.918-.344 1.264-.87 1.27-.88ZM5.885 6.115l-.016.006c-1.435.5-1.904 1.506-1.91 1.517a2.43 2.43 0 0 0 2.446.322 10.103 10.103 0 0 0-.52-1.845Zm.93 1.623a2.43 2.43 0 0 0 1.042-1.63 3.535 3.535 0 0 0-1.516-.105c.32.875.45 1.589.474 1.735Zm-.836-2.597a7.658 7.658 0 0 1 .214.478c.836-.105 1.66.072 1.695.08a2.415 2.415 0 0 0-.554-1.52c-.004.007-.395.57-1.355.962Z" fill="#fff"/></symbol><symbol fill="none" xmlns="http://www.w3.org/2000/svg" viewBox="0 0 34 34" id="club"><path d="M20.128 16.89a.973.973 0 0 1-.461-.12v.003a.977.977 0 0 1-.289.697.979.979 0 0 1-1.164.165.976.976 0 0 1-.98.927.984.984 0 0 1-.979-.928.989.989 0 0 1-.534.122c-.515-.034-.919-.479-.919-1.014v-4.431l-.504.874a1.085 1.085 0 0 1-1.48.398.883.883 0 0 1-.414-.54.88.88 0 0 1 .09-.674l1.751-3.034.075-.169c.028-.062.052-.126.075-.19.497-1.406 1.73-2.279 3.217-2.279 1.93 0 3.501 1.703 3.501 3.797v5.412a.98.98 0 0 1-.985.985Zm-2.516-9.67c-1.278 0-2.296.722-2.724 1.931a3.224 3.224 0 0 1-.09.228c-.096.217-.096.217-.123.248l-.004-.003c-.134.254-.535.948-1.724 3.007a.362.362 0 0 0 .132.498c.26.15.617.053.765-.206l.994-1.72a.262.262 0 0 1 .489.131v5.408c0 .256.192.476.428.491a.465.465 0 0 0 .494-.46v-3.537a.262.262 0 1 1 .524 0v4.34a.462.462 0 0 0 .923 0v-4.34a.262.262 0 1 1 .524 0v3.537a.462.462 0 0 0 .923 0v-3.537a.262.262 0 1 1 .524 0v2.67a.462.462 0 0 0 .923 0v-5.412c0-1.805-1.336-3.273-2.978-3.273ZM9.839 20.652l3.8-2.28c.458-.275 1.048-.158 1.342.267a.985.985 0 0 1 .17.518.977.977 0 0 1 1.3.365.979.979 0 0 1-.291 1.316.974.974 0 0 1 .456 1.084.98.98 0 0 1-.449.606h-.001a.98.98 0 0 1 .451 1.08.98.98 0 0 1-.449.607l-4.64 2.784a3.943 3.943 0 0 1-2.819.504c-.96-.196-1.755-.748-2.238-1.554-.765-1.275-.65-2.781.298-3.931.044-.053.086-.106.125-.162l.106-.15 1.7-3.064a.888.888 0 0 1 1.21-.345 1.083 1.083 0 0 1 .419 1.472l-.49.883Zm.022-1.698a.553.553 0 0 0-.206-.2.365.365 0 0 0-.496.142c-1.147 2.066-1.538 2.77-1.689 3.021h.004c-.013.043-.013.043-.151.24a3.25 3.25 0 0 1-.15.194c-.816.989-.91 2.233-.254 3.329.407.678 1.08 1.144 1.895 1.31a3.423 3.423 0 0 0 2.444-.44l4.64-2.784a.458.458 0 0 0 .16-.634.462.462 0 0 0-.634-.158l-2.29 1.373a.262.262 0 1 1-.269-.449l2.29-1.373.743-.446a.46.46 0 0 0 .158-.634.462.462 0 0 0-.633-.158l-3.033 1.82a.262.262 0 1 1-.27-.45l3.723-2.233a.458.458 0 0 0 .159-.633.46.46 0 0 0-.634-.158l-.689.413-3.033 1.82a.261.261 0 1 1-.27-.45l3.033-1.819a.459.459 0 0 0 .141-.66c-.135-.195-.423-.247-.642-.116l-4.637 2.782a.262.262 0 0 1-.364-.351l.964-1.737a.56.56 0 0 0-.01-.56ZM27.998 25.949c-.483.806-1.278 1.358-2.238 1.554a3.944 3.944 0 0 1-2.819-.505l-4.64-2.783a.98.98 0 0 1 .002-1.686l-.002-.001a.978.978 0 0 1-.449-.606.979.979 0 0 1 .455-1.085.976.976 0 0 1-.289-1.315.978.978 0 0 1 1.3-.365.986.986 0 0 1 .17-.518c.294-.425.883-.542 1.342-.267l3.8 2.28-.49-.883a1.086 1.086 0 0 1 .42-1.473.888.888 0 0 1 1.208.346l1.702 3.064.105.15c.039.056.081.109.125.162.949 1.15 1.063 2.656.298 3.931Zm-.702-3.598a3.108 3.108 0 0 1-.15-.194c-.142-.2-.145-.206-.156-.259-.165-.274-.57-1.001-1.68-3.002a.365.365 0 0 0-.495-.143.56.56 0 0 0-.217.761l.964 1.738a.261.261 0 0 1-.364.351l-4.637-2.782c-.219-.13-.507-.08-.642.116a.459.459 0 0 0 .14.66h.002l3.032 1.82a.262.262 0 1 1-.27.449L19.1 19.633a.458.458 0 0 0-.633.158.46.46 0 0 0 .159.634l.724.434 2.998 1.799a.262.262 0 1 1-.27.449l-3.032-1.82a.462.462 0 0 0-.475.792l.743.446 2.29 1.373a.262.262 0 0 1-.27.45l-2.29-1.374a.458.458 0 0 0-.633.158.46.46 0 0 0 .159.634l4.64 2.784a3.421 3.421 0 0 0 2.445.44c.814-.166 1.487-.632 1.894-1.31.658-1.096.563-2.34-.253-3.329Z" fill="#4CAF4F"/></symbol><symbol fill="none" xmlns="http://www.w3.org/2000/svg" viewBox="0 0 23 20" id="clubs"><path d="M22.629 13.184a6.01 6.01 0 0 1-6.01 6.01H7.605a1.67 1.67 0 0 1-1.67-1.67V6.175a3.339 3.339 0 0 1 3.339-3.34h11.685c.922 0 1.67.748 1.67 1.67v8.68Z" fill="#E8F5E9"/><path d="M10.38 8.392a.467.467 0 0 1-.222-.058v.001a.469.469 0 0 1-.696.413.468.468 0 0 1-.47.445.472.472 0 0 1-.47-.445.474.474 0 0 1-.256.059.481.481 0 0 1-.44-.487V6.195l-.243.42a.52.52 0 0 1-.71.19.424.424 0 0 1-.155-.582l.84-1.456.036-.08c.013-.03.025-.06.036-.092a1.6 1.6 0 0 1 1.543-1.093c.926 0 1.68.817 1.68 1.821V7.92a.47.47 0 0 1-.473.473ZM9.173 3.753a1.34 1.34 0 0 0-1.307.926 1.543 1.543 0 0 1-.043.11c-.046.104-.046.104-.059.119l-.002-.002c-.064.122-.256.455-.827 1.443A.174.174 0 0 0 7 6.587a.275.275 0 0 0 .366-.098l.477-.825a.126.126 0 0 1 .234.063V8.32c0 .122.093.228.206.235a.223.223 0 0 0 .237-.22V6.638a.126.126 0 1 1 .251 0V8.72a.222.222 0 0 0 .443 0V6.639a.126.126 0 1 1 .251 0v1.697a.222.222 0 0 0 .443-.001V6.639a.126.126 0 1 1 .252 0v1.28a.222.222 0 0 0 .442 0V5.324c0-.866-.64-1.57-1.428-1.57ZM5.444 10.196l1.823-1.094a.48.48 0 0 1 .644.128c.051.074.077.16.081.249a.469.469 0 0 1 .624.174.47.47 0 0 1-.14.632.468.468 0 0 1 .22.52.47.47 0 0 1-.216.29.469.469 0 0 1 0 .81L6.254 13.24c-.415.249-.895.335-1.352.242a1.606 1.606 0 0 1-1.073-.746 1.6 1.6 0 0 1 .143-1.885c.02-.025.041-.051.06-.078.02-.028.043-.06.05-.072.048-.084.817-1.47.817-1.47a.426.426 0 0 1 .58-.165.52.52 0 0 1 .2.706l-.235.424Zm.011-.815a.266.266 0 0 0-.099-.096.175.175 0 0 0-.238.068 92.37 92.37 0 0 1-.81 1.45h.002c-.006.02-.006.02-.072.115a1.52 1.52 0 0 1-.072.093 1.34 1.34 0 0 0-.122 1.596c.195.326.518.549.909.629.395.08.81.005 1.172-.212l2.226-1.335a.22.22 0 0 0 .076-.304.222.222 0 0 0-.304-.076l-1.098.66a.126.126 0 1 1-.13-.216l1.099-.659.357-.214a.22.22 0 0 0 .076-.304.222.222 0 0 0-.304-.076l-1.455.873a.125.125 0 1 1-.13-.215l1.786-1.072a.22.22 0 0 0 .076-.303.22.22 0 0 0-.304-.076l-.33.198-1.455.873a.125.125 0 1 1-.13-.216l1.455-.872a.22.22 0 0 0 .068-.317c-.065-.094-.203-.118-.308-.055l-2.224 1.334a.126.126 0 0 1-.174-.169l.462-.833a.269.269 0 0 0-.005-.269ZM14.155 12.736a1.605 1.605 0 0 1-1.074.746 1.892 1.892 0 0 1-1.352-.242l-2.226-1.336a.47.47 0 0 1 .001-.808.469.469 0 0 1-.163-.65.47.47 0 0 1 .165-.162.468.468 0 0 1-.138-.63.47.47 0 0 1 .623-.175.473.473 0 0 1 .082-.25.481.481 0 0 1 .643-.127l1.823 1.093-.235-.423a.521.521 0 0 1 .202-.707.424.424 0 0 1 .579.166l.816 1.47.05.072.06.078c.456.551.51 1.274.144 1.885Zm-.337-1.725a1.509 1.509 0 0 1-.072-.093c-.068-.097-.07-.1-.075-.124-.08-.132-.273-.48-.806-1.44a.175.175 0 0 0-.237-.069.269.269 0 0 0-.104.365l.462.833a.126.126 0 0 1-.175.169l-2.224-1.334c-.105-.063-.243-.039-.308.055a.22.22 0 0 0 .068.317l1.455.872a.126.126 0 1 1-.13.216L9.887 9.707a.22.22 0 0 0-.304.076.22.22 0 0 0 .076.303l.348.209 1.438.863a.126.126 0 1 1-.13.215L9.861 10.5a.222.222 0 0 0-.228.38l.356.214 1.098.659a.126.126 0 1 1-.129.215L9.86 11.31a.22.22 0 0 0-.304.076.22.22 0 0 0 .076.304l2.226 1.335a1.64 1.64 0 0 0 1.173.212c.39-.08.713-.303.908-.629a1.339 1.339 0 0 0-.121-1.596Z" fill="#103E13"/></symbol><symbol fill="none" xmlns="http://www.w3.org/2000/svg" viewBox="0 0 17 4" id="dot"><circle cx="2.374" cy="2.02" r="1.669" fill="#4CAF4F"/><circle opacity=".3" cx="8.384" cy="2.02" r="1.669" fill="#4CAF4F"/><circle opacity=".3" cx="14.394" cy="2.02" r="1.669" fill="#4CAF4F"/></symbol><symbol fill="none" xmlns="http://www.w3.org/2000/svg" viewBox="0 0 17 17" id="event"><path d="M14.092 14.407v-1.335A2.671 2.671 0 0 0 11.42 10.4h-.668a.668.668 0 0 1-.668-.668V6.394a1.335 1.335 0 0 0-2.67 0v6.01l-1.603-2.137a1.335 1.335 0 0 0-1.069-.534h-.29a1.046 1.046 0 0 0-.896 1.584l1.854 3.09M8.75 3.056v-.668.668Zm4.006 4.006h.668-.668Zm-8.68 0h.667-.667Zm1.564-3.11-.472-.472.472.472Zm6.22 0 .472-.472-.473.472Z" fill="#4CAF4F"/><path d="M14.092 14.407v-1.335A2.671 2.671 0 0 0 11.42 10.4h-.668a.668.668 0 0 1-.668-.668V6.394A1.335 1.335 0 0 0 8.75 5.06v0a1.335 1.335 0 0 0-1.336 1.335v6.01l-1.602-2.137a1.335 1.335 0 0 0-1.069-.534h-.29a1.046 1.046 0 0 0-.896 1.584l1.854 3.09M8.75 3.056v-.668m4.006 4.674h.668m-9.348 0h.667m.897-3.11-.472-.472m6.692.472.472-.472" stroke="#4CAF4F" stroke-width=".668" stroke-linecap="round" stroke-linejoin="round"/></symbol><symbol fill="none" xmlns="http://www.w3.org/2000/svg" viewBox="0 0 11 12" id="instagram"><path opacity=".1" fill-rule="evenodd" clip-rule="evenodd" d="M.088 5.727a5.342 5.342 0 1 1 10.684 0 5.342 5.342 0 0 1-10.684 0Z" fill="#fff"/><path fill-rule="evenodd" clip-rule="evenodd" d="M5.43 2.878c-.774 0-.87.004-1.175.017a2.09 2.09 0 0 0-.691.133c-.188.073-.346.17-.505.328a1.399 1.399 0 0 0-.329.505c-.07.181-.118.388-.132.691-.014.304-.017.401-.017 1.175s.003.87.017 1.175c.014.303.062.51.132.691.073.188.17.346.329.505.158.158.317.256.504.329.182.07.389.118.692.132.304.014.401.017 1.175.017s.87-.003 1.174-.017c.304-.014.51-.062.692-.132.187-.073.346-.17.504-.33.159-.157.256-.316.33-.504.07-.181.117-.388.132-.691.013-.304.017-.401.017-1.175s-.004-.87-.017-1.175a2.111 2.111 0 0 0-.133-.691 1.398 1.398 0 0 0-.329-.505 1.392 1.392 0 0 0-.504-.328 2.097 2.097 0 0 0-.692-.133 20.21 20.21 0 0 0-1.175-.017h.001Zm-.256.514h.256c.76 0 .85.002 1.151.016.278.013.429.06.53.098a.881.881 0 0 1 .327.213c.1.1.161.195.213.328.039.1.085.25.098.529.014.3.017.39.017 1.15 0 .76-.003.851-.017 1.151-.013.278-.06.429-.098.53a.88.88 0 0 1-.213.327c-.1.1-.195.161-.328.213-.1.039-.25.085-.529.098-.3.013-.39.016-1.15.016-.762 0-.852-.003-1.152-.016a1.58 1.58 0 0 1-.53-.098.883.883 0 0 1-.327-.213.883.883 0 0 1-.213-.328 1.574 1.574 0 0 1-.098-.529c-.014-.3-.017-.39-.017-1.151s.003-.85.017-1.151c.013-.278.059-.429.098-.529a.883.883 0 0 1 .213-.328c.1-.1.195-.161.328-.213.1-.039.251-.085.529-.098.263-.012.364-.015.895-.016Zm1.777.473a.342.342 0 1 0 0 .683.342.342 0 0 0 0-.683Zm-1.52.4a1.463 1.463 0 1 0 0 2.925 1.463 1.463 0 0 0 0-2.926Zm0 .513a.95.95 0 1 1 0 1.899.95.95 0 0 1 0-1.9Z" fill="#fff"/></symbol><symbol fill="none" xmlns="http://www.w3.org/2000/svg" viewBox="0 0 17 17" id="logo-first"><g clip-path="url('#clip0_212_1121')"><path fill-rule="evenodd" clip-rule="evenodd" d="M4.75 2.08A3.339 3.339 0 0 1 8.09 5.42V2.08h3.338a3.339 3.339 0 1 1 0 6.678 3.339 3.339 0 0 1 2.373 5.687l-.012.012-.011.011a3.328 3.328 0 0 1-2.35.967c-.91 0-1.735-.364-2.337-.955l-.024-.023a3.328 3.328 0 0 1-.978-2.36 3.339 3.339 0 0 1-6.677 0v-3.34h3.339a3.339 3.339 0 1 1 0-6.677ZM7.423 5.42a2.67 2.67 0 0 1-2.671 2.67V2.75a2.67 2.67 0 0 1 2.67 2.67Zm6.677 6.677a2.671 2.671 0 0 0-5.342 0H14.1ZM2.08 9.426v2.67a2.671 2.671 0 0 0 5.342 0v-2.67H2.08ZM8.757 8.09V2.748h2.671a2.671 2.671 0 1 1 0 5.342h-2.67Z" fill="#263238"/></g><defs><clipPath id="clip0_212_1121"><path fill="#fff" transform="translate(1.412 2.08)" d="M0 0h13.355v13.355H0z"/></clipPath></defs></symbol><symbol fill="none" xmlns="http://www.w3.org/2000/svg" viewBox="0 0 17 17" id="logo-four"><g clip-path="url('#clip0_212_1131')" fill="#3A3B7B"><path d="M15.394 5.223c0 .01 0 .025-.003.033-.015.11-.015.22-.006.333.006.029.012.057.035.08.039.042.097.033.12-.017a.114.114 0 0 0 .007-.077 1.387 1.387 0 0 1-.038-.33v-.022c.032-.003.061-.006.088-.006a.144.144 0 0 0 .053-.014c.044-.023.044-.07-.003-.093a.15.15 0 0 0-.062-.012c-.074.003-.147.003-.22.003a.75.75 0 0 0-.08.006c-.015.003-.032.003-.044.011-.02.009-.032.023-.032.042.003.02.011.032.032.04a.07.07 0 0 0 .041.011c.035.003.074.009.112.012Zm.809.13c0 .002.003.005.003.005.011.076.023.15.032.223.003.025.006.048.023.068.039.048.097.042.124-.009a.121.121 0 0 0 .009-.079c-.018-.084-.027-.17-.044-.25a1.72 1.72 0 0 0-.042-.145.069.069 0 0 0-.064-.05.072.072 0 0 0-.077.036.361.361 0 0 0-.044.07c-.02.046-.038.09-.062.133a.083.083 0 0 1-.011.028l-.006-.008c-.038-.07-.074-.141-.112-.209-.006-.006-.009-.011-.012-.017-.017-.025-.038-.04-.07-.04a.087.087 0 0 0-.068.046c-.006.011-.006.02-.009.03l-.038.272a1.32 1.32 0 0 0-.009.152.055.055 0 0 0 .006.037.053.053 0 0 0 .047.04c.03.002.05-.006.059-.029a.159.159 0 0 0 .015-.045c.011-.05.02-.099.029-.147.006-.028.009-.05.018-.082.005.012.011.02.017.029.027.034.053.067.086.096.032.022.058.02.085-.006l.015-.014c.026-.04.058-.08.085-.119.006-.005.009-.011.015-.017ZM9.427 5.278c-.02.054-.024.092-.015.124.01.044.038.058.074.047.346-.082 1.103.15 1.383.216.067.013.12-.069.075-.142-.066-.071-.823-.376-1.111-.392-.114-.006-.316-.034-.406.147ZM12.387 4.292c.037.02.057.04.067.062.016.028.008.048-.018.058-.228.107-.532.567-.655.726-.03.037-.098.015-.108-.045.002-.068.271-.567.422-.703.059-.054.156-.158.292-.098ZM10.569 4.065c.044-.032.09-.043.113-.022.345.283.528.73.64 1.14.005.01.005.024.002.038-.002.012-.01.025-.026.035-.015.011-.029.014-.035.005-.151-.197-1.014-.964-.694-1.196ZM3.274 8.968c.083-.06.172-.108.267-.147a.495.495 0 0 1 .302.013c.097.036.178.1.233.185a.429.429 0 0 1-.075.528.9.9 0 0 1-.184.144c-.302.187-.607.364-.912.552a1.507 1.507 0 0 1-.198.125.524.524 0 0 1-.628-.14 1 1 0 0 1-.133-.208c-.289-.583-.588-1.163-.866-1.755-.129-.257-.233-.552-.335-.837a.344.344 0 0 1-.023-.267.36.36 0 0 1 .177-.208.385.385 0 0 1 .278-.03.37.37 0 0 1 .22.164c.15.19.283.393.396.606.289.513.564 1.026.842 1.523a.805.805 0 0 0 .054.08c.209-.084.406-.195.585-.328ZM6.259 8.789c-.66.741-1.767.554-2.323-.4-.396-.678-.465-1.796.396-2.502.183-.148.403-.248.639-.292.288-.04.582.009.84.14.258.13.466.335.595.586.47.82.404 1.867-.147 2.468Zm-.267-1.73a.928.928 0 0 0-.399-.487.584.584 0 0 0-.713.044c-.383.325-.463 1.098-.185 1.557a.567.567 0 0 0 .153.195.596.596 0 0 0 .477.129.603.603 0 0 0 .236-.09c.207-.155.36-.367.435-.608.076-.241.071-.499-.012-.737l.008-.003ZM8.953 7.383a.54.54 0 0 1-.522-.184.369.369 0 0 1-.056-.317.373.373 0 0 1 .081-.146.49.49 0 0 1 .267-.172 4.02 4.02 0 0 1 .856-.14.5.5 0 0 1 .358.1.466.466 0 0 1 .176.315c.084.3.093.616.027.92-.24.986-1.069 1.325-2 1.01a1.384 1.384 0 0 1-.657-.452 2.086 2.086 0 0 1-.462-.875 1.77 1.77 0 0 1 .02-.87c.08-.283.228-.544.434-.762.196-.236.45-.422.738-.541a.865.865 0 0 1 .599-.077.27.27 0 0 1 .12.069.247.247 0 0 1-.011.367c-.066.058-.139.11-.216.154a2.194 2.194 0 0 0-.61.551 1.156 1.156 0 0 0-.206.998c.061.233.196.442.385.598.588.513 1.353.018 1.22-.682-.196.046-.367.095-.54.136ZM12.546 8.83c-.869.513-1.858 0-2.074-1.078-.158-.77.141-1.847 1.19-2.257a1.48 1.48 0 0 1 .702-.088c.286.05.549.186.75.387.203.201.334.458.375.734.177.916-.224 1.894-.943 2.302Zm.302-1.727a.885.885 0 0 0-.222-.582.563.563 0 0 0-.313-.205.583.583 0 0 0-.377.033c-.47.195-.802.903-.681 1.424a.55.55 0 0 0 .256.407.603.603 0 0 0 .49.075 1.26 1.26 0 0 0 .615-.446 1.18 1.18 0 0 0 .232-.706ZM14.368 9.045a.355.355 0 0 1-.143.237.384.384 0 0 1-.522-.068.347.347 0 0 1 .07-.5.384.384 0 0 1 .522.067c.06.075.086.17.073.264Zm-.233-3.46a.428.428 0 0 1 .213-.162.447.447 0 0 1 .271-.008c.09.022.17.073.226.144.056.071.085.16.082.249a2.937 2.937 0 0 1-.067.425c-.088.475-.174.95-.268 1.42a6.485 6.485 0 0 1-.16.556.396.396 0 0 1-.104.156.278.278 0 0 1-.363.038.258.258 0 0 1-.084-.1.576.576 0 0 1-.05-.222c0-.319 0-.64.021-.96a8.98 8.98 0 0 1 .214-1.36.502.502 0 0 1 .07-.169v-.008Z"/><path fill-rule="evenodd" clip-rule="evenodd" d="M2.145 11.107a.341.341 0 0 0-.025.215c.01.096.033.19.067.28.043.111.09.22.15.355l.043.098c.08.182.18.416.313.754.037.096.07.193.105.29l.04.118c.051.141.137.268.252.368a.397.397 0 0 0 .594-.013.358.358 0 0 0 .079-.198.765.765 0 0 0-.03-.421 7.11 7.11 0 0 0-.269-.67 41.28 41.28 0 0 0-.52-1.028v-.003a.891.891 0 0 0-.203-.235.363.363 0 0 0-.597.09ZM4.719 10.26a1.953 1.953 0 0 0-.809-.028c-.208.02-.412.065-.554.156a.414.414 0 0 0-.163.182.386.386 0 0 0-.01.26c.048.178.112.351.175.523l.01.028c.191.501.383 1 .577 1.497.023.079.055.154.095.225l.001.002a.92.92 0 0 0 .204.234.312.312 0 0 0 .311.063.308.308 0 0 0 .136-.09.29.29 0 0 0 .067-.143.691.691 0 0 0-.032-.428c-.017-.046-.031-.093-.046-.143a6.26 6.26 0 0 0-.014-.05c.444-.166.916-.39 1.082-.912a.888.888 0 0 0 .016-.558.922.922 0 0 0-.323-.465 1.906 1.906 0 0 0-.723-.353Zm-.733.639a1.256 1.256 0 0 1 .86.157c.109.073.154.154.161.232a.372.372 0 0 1-.083.25.813.813 0 0 1-.517.309c-.139-.307-.28-.626-.42-.948Z"/><path d="M6.48 9.698c.315-.14.705-.163 1.01-.065a.344.344 0 0 1 .189.131c.044.063.065.14.058.215 0 .05-.013.098-.037.142a.318.318 0 0 1-.102.112.335.335 0 0 1-.298.038l-.004-.002-.003-.001a.353.353 0 0 0-.08-.029h-.001c-.215-.055-.417.036-.491.147-.036.053-.04.107-.01.156.03.052.108.11.264.152l.132.033c.123.031.251.063.375.107.573.21.786.642.713 1.05-.072.402-.422.768-.949.854-.192.041-.391.033-.579-.023a1.136 1.136 0 0 1-.491-.296l-.004-.004a.405.405 0 0 1-.083-.178.302.302 0 0 1 .017-.175.351.351 0 0 1 .487-.165.72.72 0 0 1 .162.102V12c.087.076.191.095.291.077a.44.44 0 0 0 .259-.152c.06-.077.085-.167.056-.254-.03-.089-.117-.188-.31-.27a1.662 1.662 0 0 0-.157-.053l-.045-.014c-.04-.011-.082-.023-.123-.037a7.735 7.735 0 0 0-.083-.026c-.075-.024-.148-.047-.219-.077a.75.75 0 0 1-.377-.275.702.702 0 0 1-.133-.438c0-.38.25-.643.567-.783ZM10.47 9.658a.424.424 0 0 0-.389.015.402.402 0 0 0-.14.135.42.42 0 0 0-.065.32c.011.07.024.138.036.205.02.112.04.221.054.332v.003c.03.174.046.35.048.527v.003a.716.716 0 0 1-.189.521l-.002.003a.374.374 0 0 1-.165.116.39.39 0 0 1-.385-.074.357.357 0 0 1-.106-.168 1.76 1.76 0 0 1-.067-.416l.067-1.018a5.46 5.46 0 0 1 .003-.04l.006-.092a.469.469 0 0 0-.01-.13.242.242 0 0 0-.068-.119.339.339 0 0 0-.145-.077.43.43 0 0 0-.28.002.341.341 0 0 0-.17.158.867.867 0 0 0-.079.227 3.59 3.59 0 0 0-.034.18l-.011.06a4.154 4.154 0 0 0-.049.982c.004.177.043.352.114.516.08.21.224.394.415.524a1.19 1.19 0 0 0 1.313.022c.195-.125.346-.303.433-.512.123-.265.18-.554.168-.845-.007-.211-.02-.425-.031-.637a58.397 58.397 0 0 1-.017-.312.494.494 0 0 0-.102-.287.405.405 0 0 0-.153-.124ZM12.63 11.254l-.02.023c-.05-.274-.095-.55-.141-.824l-.05-.297-.002-.011-.006-.01c-.012-.017-.013-.035-.013-.072V10.053a.385.385 0 0 0-.105-.207.43.43 0 0 0-.447-.102.413.413 0 0 0-.192.137.65.65 0 0 0-.099.158l-.17.37v.002c-.143.308-.287.619-.426.932-.086.203-.156.417-.226.63a27.13 27.13 0 0 1-.043.128.517.517 0 0 0-.032.21.302.302 0 0 0 .046.183.339.339 0 0 0 .538.033c.056-.068.105-.141.145-.219.118-.231.23-.466.343-.699.043-.09.085-.171.133-.259l.01.032c.05.213.136.416.252.603a.331.331 0 0 0 .358.159c.046-.01.09-.03.127-.057l.075-.054.579-.468-.035.21c-.047.288-.093.573-.143.858a.774.774 0 0 0 0 .386.36.36 0 0 0 .103.188.394.394 0 0 0 .419.079.376.376 0 0 0 .169-.136.746.746 0 0 0 .171-.396c.025-.205.052-.413.08-.62.032-.24.064-.48.091-.714v-.001c.026-.257.039-.515.038-.773a.378.378 0 0 0-.06-.233.404.404 0 0 0-.192-.155.439.439 0 0 0-.49.1 3.241 3.241 0 0 0-.3.304h-.001c-.102.122-.202.245-.302.368l-.182.223Z"/></g><defs><clipPath id="clip0_212_1131"><path fill="#fff" transform="translate(.705 4.032)" d="M0 0h15.692v9.682H0z"/></clipPath></defs></symbol><symbol fill="none" xmlns="http://www.w3.org/2000/svg" viewBox="0 0 17 17" id="logo-second"><g clip-path="url('#clip0_212_1124')"><path fill-rule="evenodd" clip-rule="evenodd" d="m5.178 5.406-3.334 3.3a9.438 9.438 0 0 0 2.259 1.652c.23.603.59 1.168 1.08 1.654a4.755 4.755 0 0 0 6.677 0c.49-.486.85-1.05 1.08-1.654a9.434 9.434 0 0 0 2.258-1.651l-3.33-3.298-.008-.008a4.756 4.756 0 0 0-6.678 0l-.004.005Zm6.363 5.548a9.53 9.53 0 0 1-6.04 0 3.804 3.804 0 0 0 6.04 0ZM5.918 5.996a4.738 4.738 0 0 0 2.603.775 4.763 4.763 0 0 0 2.602-.775 3.805 3.805 0 0 0-5.204 0Z" fill="#3B4158"/></g><defs><clipPath id="clip0_212_1124"><path fill="#fff" transform="translate(1.844 4.032)" d="M0 0h13.355v9.348H0z"/></clipPath></defs></symbol><symbol fill="none" xmlns="http://www.w3.org/2000/svg" viewBox="0 0 18 17" id="logo-six"><g clip-path="url('#clip0_212_1151')" fill="#394149"><path d="M4.687 5.368c-.678 0-1.328.27-1.807.749L1.315 7.68a2.556 2.556 0 1 0 3.615 3.615l1.083-1.082 3.153-3.153a1.22 1.22 0 0 1 2.024.485l.995-.996a2.554 2.554 0 0 0-3.964-.433l-4.235 4.235a1.22 1.22 0 1 1-1.727-1.726L3.824 7.06a1.22 1.22 0 0 1 2.024.485l.995-.996a2.554 2.554 0 0 0-2.156-1.182Z"/><path d="M9.328 10.352a1.22 1.22 0 0 1-2.025-.484l-.995.995a2.555 2.555 0 0 0 3.964.434l4.236-4.236a1.221 1.221 0 0 1 1.726 1.727l-1.564 1.564a1.22 1.22 0 0 1-2.025-.484l-.995.995a2.554 2.554 0 0 0 3.964.434l1.565-1.565a2.556 2.556 0 0 0-3.616-3.615l-4.235 4.235Z"/></g><defs><clipPath id="clip0_212_1151"><path fill="#fff" transform="translate(.566 5.368)" d="M0 0h17.361v6.677H0z"/></clipPath></defs></symbol><symbol fill="none" xmlns="http://www.w3.org/2000/svg" viewBox="0 0 17 17" id="logo-five"><g clip-path="url('#clip0_212_1147')" fill="#212326"><path d="M14.97 4.648c0 .156.129.282.286.282h.285a.283.283 0 0 0 .285-.282.283.283 0 0 0-.285-.282h-.285a.283.283 0 0 0-.285.282ZM6.7 13.38h1.386l-.403-.398a.574.574 0 0 0-.403-.165H6.7c-2.204 0-3.992-1.765-3.992-3.943 0-2.179 1.788-3.944 3.993-3.944h4.563c2.205 0 3.992 1.765 3.992 3.944 0 2.178-1.787 3.943-3.992 3.943H9.557a.86.86 0 0 1-.605-.247l-.473-.467a1.435 1.435 0 0 0-1.008-.412h-.77c-1.575 0-2.852-1.262-2.852-2.817 0-1.556 1.277-2.817 2.852-2.817h4.563c1.575 0 2.852 1.26 2.852 2.817 0 1.555-1.277 2.816-2.852 2.816h-1.096a.86.86 0 0 1-.605-.247l-.473-.467a1.435 1.435 0 0 0-1.008-.412H6.701a1.7 1.7 0 0 1-1.711-1.69 1.7 1.7 0 0 1 1.71-1.69h4.564a1.7 1.7 0 0 1 1.71 1.69 1.7 1.7 0 0 1-1.676 1.69h-.417a.86.86 0 0 1-.605-.248l-.473-.467a1.432 1.432 0 0 0-.806-.398l-.015-.014H6.701a.567.567 0 0 1-.57-.563c0-.312.255-.564.57-.564h4.563c.315 0 .57.252.57.564a.567.567 0 0 1-.57.563h-1.141l.403.398a.574.574 0 0 0 .404.165h.334c.63 0 1.14-.504 1.14-1.126 0-.623-.51-1.127-1.14-1.127H6.7c-.63 0-1.14.504-1.14 1.127C5.56 9.496 6.07 10 6.7 10h2.094c.227 0 .445.09.605.248l.472.467c.268.264.63.412 1.009.412h.525v-.004c1.194-.073 2.14-1.052 2.14-2.25 0-1.244-1.022-2.253-2.282-2.253H6.7c-1.26 0-2.282 1.009-2.282 2.254 0 1.244 1.022 2.253 2.282 2.253h1.381c.227 0 .445.09.605.248l.473.466c.267.264.63.413 1.008.413h1.096c1.89 0 3.422-1.513 3.422-3.38s-1.532-3.38-3.422-3.38H6.7c-1.89 0-3.422 1.513-3.422 3.38s1.532 3.38 3.422 3.38h.77c.227 0 .445.089.605.247l.473.467c.267.264.63.413 1.008.413h1.707c2.52 0 4.563-2.018 4.563-4.507 0-2.49-2.043-4.508-4.563-4.508H6.7c-2.52 0-4.563 2.018-4.563 4.508 0 2.489 2.043 4.507 4.563 4.507Z"/></g><defs><clipPath id="clip0_212_1147"><path fill="#fff" transform="translate(2.138 4.366)" d="M0 0h13.688v9.014H0z"/></clipPath></defs></symbol><symbol fill="none" xmlns="http://www.w3.org/2000/svg" viewBox="0 0 20 17" id="logo-third"><g clip-path="url('#clip0_212_1127')"><path d="M19.3 7.26a.147.147 0 0 0 0-.041.104.104 0 0 0 0-.034l-.137-.98a.635.635 0 0 0-.151-.316l-.024-.026-.042-.042-2.355-1.989.066.065a.562.562 0 0 0-.443-.198h-.715a.524.524 0 0 0-.323.103.567.567 0 0 0-.334-.103h-.715a.54.54 0 0 0-.466.255.524.524 0 0 0-.078.38l.09.618a.395.395 0 0 0-.195-.05h-3.463a.658.658 0 0 0-.582.359l-.269-.225a.562.562 0 0 0-.388-.145H3.343a.726.726 0 0 0-.353.1.642.642 0 0 0-.3.38L.965 11.03a.486.486 0 0 0 .148.533c.02.017.04.032.062.046 0 0-.035-.023-.055-.042l2.355 1.992c.1.09.23.14.366.141h5.475a.722.722 0 0 0 .354-.102.578.578 0 0 0 .159-.126l.02-.027.03-.038.024-.042.256.217a.539.539 0 0 0 .358.134h5.487a.742.742 0 0 0 .513-.229l.02-.027.03-.038a.488.488 0 0 0 .043-.076.398.398 0 0 0 .031-.072l1.574-5.166V8.06a.25.25 0 0 0 0-.053v-.035a.104.104 0 0 0 0-.034.486.486 0 0 0 0-.072h.505a.736.736 0 0 0 .132 0h.035a.393.393 0 0 0 .082-.035h.039l.07-.053.03-.023.055-.068v-.023l.04-.065a.11.11 0 0 1 0-.038.03.03 0 0 1 0-.02.467.467 0 0 0 .019-.068.05.05 0 0 1 0-.023.104.104 0 0 1 0-.034s.077-.149.077-.156Z" fill="#000"/><path d="M8.935 5.325a.133.133 0 0 1 .035.15L7.25 11.127a.264.264 0 0 1-.125.145.331.331 0 0 1-.16.053h-5.47a.192.192 0 0 1-.125-.053.133.133 0 0 1-.035-.145l1.725-5.654a.264.264 0 0 1 .12-.149.355.355 0 0 1 .16-.05h5.472c.046.001.09.02.124.05ZM6.08 9.99l1.03-3.376H4.225L3.2 9.99h2.88Zm8.079-4.606a.19.19 0 0 0 .152.064h.71a.162.162 0 0 0 .137-.072.158.158 0 0 0 .027-.122l-.14-1.006a.318.318 0 0 0-.07-.125.19.19 0 0 0-.152-.065h-.71a.162.162 0 0 0-.137.072c-.027.054-.038.088-.027.118l.144 1.006a.23.23 0 0 0 .066.13Zm2.258-1.143a.318.318 0 0 0-.07-.126.182.182 0 0 0-.148-.065h-.715a.15.15 0 0 0-.132.073.157.157 0 0 0-.031.118l.144 1.005c.009.049.032.094.066.13a.198.198 0 0 0 .151.065h.715a.154.154 0 0 0 .133-.073.143.143 0 0 0 .027-.122l-.14-1.005Zm-2.884 1.524-.07-.496h-3.447a.307.307 0 0 0-.151.05.224.224 0 0 0-.113.148l-.287.945a.127.127 0 0 0 .023.145c.033.03.076.048.12.05h4.19l-1.03 3.375H8.589a.296.296 0 0 0-.151.046.26.26 0 0 0-.113.148l-.291.945a.138.138 0 0 0 .027.145.18.18 0 0 0 .12.053h5.487a.353.353 0 0 0 .16-.053.257.257 0 0 0 .12-.145l1.578-5.166H13.75a.21.21 0 0 1-.152-.06.276.276 0 0 1-.066-.123v-.007Z" fill="#fff"/></g><defs><clipPath id="clip0_212_1127"><path fill="#fff" transform="translate(.938 3.699)" d="M0 0h18.363v10.016H0z"/></clipPath></defs></symbol><symbol fill="none" xmlns="http://www.w3.org/2000/svg" viewBox="0 0 52 9" id="logo"><path d="m6.349 4.895-1.8 3.082-1.8-3.082h3.6Zm.482-.276H2.265L4.55 8.522 6.831 4.62ZM9.478 1.06l1.8 3.083h-3.6l1.8-3.082Zm0-.55L7.194 4.413h4.568L9.478.51Z" fill="#263238"/><path d="m.077.51 1.915 3.452L4.084.596.077.51ZM4.55.812l2.008 3.433H2.537L4.549.812ZM7.075 4.995l2.01 3.527H4.97l2.044-3.527h.062ZM7.51 4.78l1.968 3.475 1.995-3.474H7.51Z" fill="#4CAF4F"/><path d="M20.12 1.067v6.799h-1.242l-2.958-4.28h-.05v4.28h-1.437v-6.8h1.261l2.935 4.277h.06V1.067h1.43ZM23.605 7.965c-.525 0-.977-.106-1.355-.318a2.183 2.183 0 0 1-.87-.91c-.203-.394-.305-.86-.305-1.398 0-.524.102-.985.305-1.38.204-.397.49-.706.86-.927.372-.221.808-.332 1.308-.332.336 0 .65.054.94.163.292.106.546.267.763.481.22.215.39.485.511.81.122.323.183.702.183 1.136v.388h-4.306v-.876h2.975c0-.204-.045-.384-.133-.542a.952.952 0 0 0-.369-.368 1.05 1.05 0 0 0-.54-.136c-.215 0-.406.05-.572.15-.163.097-.292.228-.385.394-.093.164-.14.347-.142.548v.833c0 .253.046.47.139.654.095.184.229.326.402.425.172.1.377.15.614.15.157 0 .3-.023.431-.067a.867.867 0 0 0 .548-.525l1.308.087a1.786 1.786 0 0 1-.408.823 2.05 2.05 0 0 1-.79.545c-.321.128-.692.192-1.112.192ZM27.958 2.767l.936 1.782.96-1.782h1.45l-1.477 2.55 1.517 2.549H29.9l-1.006-1.763-.989 1.763h-1.46l1.513-2.55-1.46-2.55h1.46ZM34.266 7.965c-.523 0-.972-.11-1.348-.332a2.244 2.244 0 0 1-.863-.93c-.2-.395-.299-.851-.299-1.367 0-.522.1-.98.302-1.374.204-.396.492-.705.867-.927.373-.223.818-.335 1.334-.335.445 0 .834.081 1.169.243.334.161.598.388.793.68a2 2 0 0 1 .322 1.03h-1.334a1.03 1.03 0 0 0-.3-.615c-.159-.157-.368-.236-.627-.236-.219 0-.41.06-.574.18a1.141 1.141 0 0 0-.378.514 2.2 2.2 0 0 0-.137.82c0 .325.045.602.133.83.09.228.218.402.382.521.164.12.355.18.574.18a.933.933 0 0 0 .435-.1.84.84 0 0 0 .322-.289c.087-.128.143-.282.17-.461h1.334a2.09 2.09 0 0 1-.319 1.029 1.925 1.925 0 0 1-.78.69c-.332.166-.725.25-1.178.25ZM39.772 7.965c-.524 0-.976-.106-1.354-.318a2.183 2.183 0 0 1-.87-.91c-.204-.394-.305-.86-.305-1.398 0-.524.101-.985.305-1.38.204-.397.49-.706.86-.927.372-.221.808-.332 1.308-.332.336 0 .65.054.94.163.291.106.546.267.763.481.219.215.39.485.511.81.122.323.183.702.183 1.136v.388h-4.306v-.876h2.974c0-.204-.044-.384-.132-.542a.95.95 0 0 0-.369-.368 1.05 1.05 0 0 0-.541-.136c-.215 0-.405.05-.571.15-.164.097-.292.228-.385.394-.093.164-.14.347-.143.548v.833c0 .253.047.47.14.654.095.184.229.326.401.425.173.1.378.15.614.15.158 0 .301-.023.432-.067a.866.866 0 0 0 .548-.525l1.308.087a1.786 1.786 0 0 1-.409.823 2.05 2.05 0 0 1-.79.545c-.32.128-.691.192-1.112.192ZM44.45 4.918v2.948h-1.415v-5.1h1.348v.9h.06c.113-.296.302-.53.568-.704.265-.174.587-.262.966-.262.354 0 .663.078.926.233.263.154.468.376.614.663.146.286.22.627.22 1.023v3.247h-1.415V4.87c.002-.312-.078-.555-.239-.73-.162-.177-.384-.266-.667-.266-.19 0-.359.041-.505.123a.856.856 0 0 0-.339.359c-.08.155-.12.342-.122.56ZM51.563 2.767v1.062h-3.07V2.767h3.07Zm-2.374-1.222h1.415v4.754c0 .13.02.232.06.305.04.071.094.12.165.15a.685.685 0 0 0 .253.043c.066 0 .132-.006.199-.017l.153-.03.222 1.053c-.07.022-.17.047-.299.076-.128.03-.284.05-.468.056a2.15 2.15 0 0 1-.896-.136 1.25 1.25 0 0 1-.595-.484c-.141-.22-.21-.496-.209-.83v-4.94Z" fill="#263238"/></symbol><symbol fill="none" xmlns="http://www.w3.org/2000/svg" viewBox="0 0 6 7" id="round"><path d="m4.421 4.518.825-.825a.25.25 0 0 0 0-.354l-.825-.825m.752 1.002H1.5" stroke="#fff" stroke-width=".367" stroke-linecap="round"/></symbol><symbol fill="none" xmlns="http://www.w3.org/2000/svg" viewBox="0 0 17 17" id="member"><g clip-path="url('#clip0_212_1407')"><path d="M11.348 4.12c-.244 0-.487.033-.722.1h-.002a.584.584 0 0 1-.449-.047l-.08.146.08-.146a.584.584 0 0 1 .132-1.077h.003a3.765 3.765 0 0 1 1.037-.144h.001a3.833 3.833 0 0 1 2.472 6.772l-.204.17.242.11a6.1 6.1 0 0 1 2.474 2.048.58.58 0 0 1-.14.812l-.002.001a.57.57 0 0 1-.603.04.59.59 0 0 1-.21-.182 4.936 4.936 0 0 0-4.03-2.093.584.584 0 0 1 0-1.168 2.67 2.67 0 0 0 0-5.342Zm0 0v.167-.167Zm-2.63 5.604-.203.171.241.11a6.1 6.1 0 0 1 2.474 2.047l.005.006a.585.585 0 0 1 .104.21l.162-.042-.162.043a.584.584 0 0 1-1.058.461l-.005-.007a4.924 4.924 0 0 0-8.06 0v.001a.577.577 0 0 1-.477.248h-.001a.572.572 0 0 1-.334-.107h-.001a.584.584 0 0 1-.141-.814 6.1 6.1 0 0 1 2.473-2.047l.242-.109-.203-.17a3.84 3.84 0 1 1 4.943 0Zm-7.411 3.277a.744.744 0 0 0 1.045-.181 4.757 4.757 0 0 1 7.787 0L1.307 13Zm2.718-7.694a2.67 2.67 0 1 0 4.441 2.968 2.67 2.67 0 0 0-4.441-2.968Z" fill="#4CAF4F" stroke="#4CAF4F" stroke-width=".334"/></g><defs><clipPath id="clip0_212_1407"><path fill="#fff" transform="translate(.737 .03)" d="M0 0h16.026v16.026H0z"/></clipPath></defs></symbol><symbol fill="none" xmlns="http://www.w3.org/2000/svg" viewBox="0 0 22 20" id="membership"><path d="M21.84 13.184a6.01 6.01 0 0 1-6.01 6.01H6.817a1.67 1.67 0 0 1-1.669-1.67V6.175a3.339 3.339 0 0 1 3.339-3.34H20.17c.922 0 1.67.748 1.67 1.67v8.68Z" fill="#E8F5E9"/><path d="M8.148 3.836c-1.192 0-2.162.98-2.162 2.177 0 .758.388 1.426.976 1.816-.71.237-1.323.68-1.774 1.26a3.125 3.125 0 0 0-.827-.455c.455-.338.752-.88.752-1.49a1.843 1.843 0 0 0-1.83-1.846c-1.01 0-1.831.831-1.831 1.847 0 .61.297 1.152.752 1.49A3.17 3.17 0 0 0 .14 11.613v.962a.276.276 0 0 0 .277.276h4.222l.03.002h6.96c.01 0 .021 0 .031-.002h4.222a.276.276 0 0 0 .275-.276v-.962a3.17 3.17 0 0 0-2.063-2.979c.455-.337.753-.88.753-1.49a1.843 1.843 0 0 0-1.831-1.846c-1.01 0-1.83.831-1.83 1.847 0 .61.296 1.151.751 1.489-.3.11-.579.265-.828.457a3.75 3.75 0 0 0-1.772-1.262 2.18 2.18 0 0 0 .976-1.816 2.175 2.175 0 0 0-2.163-2.177Zm0 .553c.892 0 1.611.723 1.611 1.624 0 .894-.708 1.61-1.59 1.622H8.128a1.612 1.612 0 0 1-1.589-1.622c0-.9.719-1.624 1.61-1.624ZM3.283 5.85c.707 0 1.278.574 1.278 1.295 0 .715-.563 1.287-1.264 1.295h-.028a1.283 1.283 0 0 1-1.265-1.295c0-.72.571-1.295 1.279-1.295Zm9.732 0c.707 0 1.278.574 1.278 1.295 0 .715-.563 1.287-1.264 1.295H13a1.283 1.283 0 0 1-1.265-1.295c0-.72.571-1.295 1.279-1.295ZM8.127 8.187l.021.001h.022a3.202 3.202 0 0 1 3.184 3.225v.887h-6.41v-.887a3.202 3.202 0 0 1 3.183-3.226Zm-4.866.806H3.303a2.558 2.558 0 0 1 1.58.556 3.777 3.777 0 0 0-.492 1.865v.884h-3.7v-.685c0-1.452 1.142-2.609 2.57-2.62Zm9.733 0H13.036c1.428.011 2.57 1.168 2.57 2.62v.685h-3.702v-.884a3.78 3.78 0 0 0-.49-1.864 2.558 2.558 0 0 1 1.58-.557Z" fill="#103E13"/></symbol><symbol fill="none" xmlns="http://www.w3.org/2000/svg" viewBox="0 0 23 20" id="national"><path d="M22.235 13.184a6.01 6.01 0 0 1-6.01 6.01H7.21a1.67 1.67 0 0 1-1.669-1.67V6.175a3.339 3.339 0 0 1 3.339-3.34h11.685c.922 0 1.67.748 1.67 1.67v8.68Z" fill="#E8F5E9"/><path d="M9.52 6.845a.189.189 0 0 1-.19-.19v-.32a.189.189 0 0 1 .379 0v.32a.189.189 0 0 1-.19.19ZM8.726 6.845a.189.189 0 0 1-.19-.19v-.32a.189.189 0 0 1 .378 0v.32a.189.189 0 0 1-.188.19ZM7.932 6.845a.189.189 0 0 1-.19-.19v-.32a.189.189 0 0 1 .379 0v.32a.189.189 0 0 1-.19.19ZM9.52 8.157a.189.189 0 0 1-.19-.189v-.32a.189.189 0 0 1 .379 0v.32a.189.189 0 0 1-.19.19ZM8.726 8.157a.189.189 0 0 1-.19-.189v-.32a.189.189 0 0 1 .378 0v.32a.189.189 0 0 1-.188.19ZM7.932 8.157a.189.189 0 0 1-.19-.189v-.32a.189.189 0 0 1 .379 0v.32a.189.189 0 0 1-.19.19ZM9.52 9.47a.189.189 0 0 1-.19-.19v-.32a.189.189 0 0 1 .379 0v.32a.189.189 0 0 1-.19.19ZM8.726 9.47a.189.189 0 0 1-.19-.19v-.32a.189.189 0 0 1 .378 0v.32a.189.189 0 0 1-.188.19ZM7.932 9.47a.189.189 0 0 1-.19-.19v-.32a.189.189 0 0 1 .379 0v.32a.189.189 0 0 1-.19.19ZM9.52 10.782a.189.189 0 0 1-.19-.189v-.32a.189.189 0 0 1 .379 0v.32a.189.189 0 0 1-.19.189ZM8.726 10.782a.189.189 0 0 1-.19-.189v-.32a.189.189 0 0 1 .378 0v.32a.189.189 0 0 1-.188.189ZM7.932 10.782a.189.189 0 0 1-.19-.189v-.32a.189.189 0 0 1 .379 0v.32a.189.189 0 0 1-.19.189ZM9.52 12.094a.189.189 0 0 1-.19-.188v-.321a.189.189 0 0 1 .379 0v.32a.189.189 0 0 1-.19.19ZM8.726 12.094a.189.189 0 0 1-.19-.188v-.321a.189.189 0 0 1 .378 0v.32a.189.189 0 0 1-.188.19ZM7.932 12.094a.189.189 0 0 1-.19-.188v-.321a.189.189 0 0 1 .379 0v.32a.19.19 0 0 1-.19.19Z" fill="#103E13"/><path d="M2.537 13.4c0 .105.084.19.188.19h11.501a.189.189 0 0 0 0-.378h-.349V7.789a.189.189 0 0 0-.189-.189h-3.083V3.691a.189.189 0 0 0-.276-.167L6.823 5.349a.189.189 0 0 0-.101.167v3.415H3.329a.189.189 0 0 0-.189.189v4.092h-.415a.188.188 0 0 0-.189.188Zm8.068-2.94H13.5v2.752h-2.895V10.46Zm0-1.312H13.5v.935h-2.895v-.935Zm0-1.17H13.5v.793h-2.895v-.793ZM7.099 5.631l3.128-1.628v9.209H7.1v-7.58Zm-2.648 6.072c0-.392.31-.71.693-.71.382 0 .692.318.692.71v1.509H4.451v-1.509ZM3.518 9.31h3.204v3.903h-.508v-1.509c0-.6-.48-1.088-1.07-1.088-.59 0-1.07.488-1.07 1.088v1.509h-.556V9.309Z" fill="#103E13"/></symbol><symbol fill="none" xmlns="http://www.w3.org/2000/svg" viewBox="0 0 17 17" id="payment"><path d="M2.725 5.894v.167h12.353v-.919a1.419 1.419 0 0 0-1.419-1.419H4.144a1.419 1.419 0 0 0-1.419 1.42v.75Zm12.353 1.001v-.167H2.725v4.925a1.419 1.419 0 0 0 1.42 1.419h9.514a1.42 1.42 0 0 0 1.42-1.42V6.896ZM2.058 5.142a2.087 2.087 0 0 1 2.086-2.086h9.515a2.087 2.087 0 0 1 2.087 2.086v6.51a2.087 2.087 0 0 1-2.087 2.088H4.144a2.087 2.087 0 0 1-2.086-2.087v-6.51Zm9.348 4.925h1.502a.334.334 0 1 1 0 .668h-1.502a.334.334 0 0 1 0-.668Z" fill="#4CAF4F" stroke="#4CAF4F" stroke-width=".334"/></symbol><symbol fill="none" xmlns="http://www.w3.org/2000/svg" viewBox="0 0 7 7" id="send"><g clip-path="url('#clip0_2302_587')"><path fill-rule="evenodd" clip-rule="evenodd" d="M6.35 1.108a.25.25 0 0 1 .06.26L4.655 6.376a.25.25 0 0 1-.465.019L3.23 4.229l-2.166-.963a.25.25 0 0 1 .019-.465L6.09 1.048a.25.25 0 0 1 .26.06ZM3.717 4.095l.675 1.519 1.182-3.376-1.857 1.857ZM5.22 1.884 1.844 3.065l1.519.676L5.22 1.884Z" fill="#fff"/></g><defs><clipPath id="clip0_2302_587"><path fill="#fff" transform="translate(.664 .784)" d="M0 0h6.01v6.01H0z"/></clipPath></defs></symbol><symbol fill="none" xmlns="http://www.w3.org/2000/svg" viewBox="0 0 11 12" id="twitter"><path opacity=".1" fill-rule="evenodd" clip-rule="evenodd" d="M.14 5.727a5.342 5.342 0 1 1 10.683 0 5.342 5.342 0 0 1-10.684 0Z" fill="#fff"/><path fill-rule="evenodd" clip-rule="evenodd" d="m5.321 4.727.011.185-.187-.023a3.039 3.039 0 0 1-1.778-.875L3.12 3.77l-.063.181c-.135.404-.049.83.231 1.117.15.158.116.18-.142.087-.09-.03-.168-.053-.175-.042-.026.026.063.37.134.506.097.188.295.373.512.482l.183.087-.216.004c-.21 0-.217.004-.195.083.075.245.37.505.699.619l.232.079-.202.12c-.3.174-.65.272-1.002.28-.168.003-.306.018-.306.03 0 .038.456.249.721.332.796.245 1.741.14 2.451-.28.505-.297 1.01-.89 1.245-1.463.127-.306.254-.864.254-1.132 0-.173.01-.196.22-.403.123-.121.24-.253.262-.29.037-.072.033-.072-.157-.008-.318.113-.363.098-.206-.072.116-.12.254-.34.254-.404 0-.011-.056.008-.12.042a2.085 2.085 0 0 1-.328.128l-.202.064-.183-.124a1.52 1.52 0 0 0-.317-.166 1.277 1.277 0 0 0-.654.015 1.08 1.08 0 0 0-.729 1.086Z" fill="#fff"/></symbol><symbol fill="none" xmlns="http://www.w3.org/2000/svg" viewBox="0 0 11 12" id="youtube"><path opacity=".1" fill-rule="evenodd" clip-rule="evenodd" d="M.165 5.727a5.342 5.342 0 1 1 10.684 0 5.342 5.342 0 0 1-10.684 0Z" fill="#fff"/><path fill-rule="evenodd" clip-rule="evenodd" d="M7.733 3.89a.723.723 0 0 1 .504.518c.119.456.119 1.408.119 1.408s0 .952-.12 1.408a.723.723 0 0 1-.503.518c-.445.122-2.226.122-2.226.122s-1.782 0-2.227-.122a.723.723 0 0 1-.503-.518c-.12-.456-.12-1.408-.12-1.408s0-.952.12-1.408a.723.723 0 0 1 .503-.517c.445-.122 2.227-.122 2.227-.122s1.781 0 2.226.122Zm-2.76 1.125v1.78l1.424-.89-1.425-.89Z" fill="#fff"/></symbol><symbol xmlns="http://www.w3.org/2000/svg" viewBox="0 0 6 7" id="right"><path d="m4.421 4.518.825-.825a.25.25 0 0 0 0-.354l-.825-.825m.752 1.002H1.5" stroke-width=".367" stroke-linecap="round"/></symbol><symbol fill="none" xmlns="http://www.w3.org/2000/svg" viewBox="0 0 17 17" id="logo-first-color"><rect x=".293" y=".894" width="16.026" height="16.026" rx="2.671" fill="#E8F5E9"/><g clip-path="url('#clip0_212_1586')"><path fill-rule="evenodd" clip-rule="evenodd" d="M3.75.959a3.339 3.339 0 0 1 3.338 3.339V.958h3.339a3.339 3.339 0 1 1 0 6.678 3.339 3.339 0 0 1 2.373 5.687l-.013.013-.01.01a3.328 3.328 0 0 1-2.35.967c-.91 0-1.736-.364-2.338-.954l-.023-.023a3.328 3.328 0 0 1-.978-2.36 3.339 3.339 0 0 1-6.677-.001V7.636h3.338a3.339 3.339 0 0 1 0-6.677Zm2.67 3.339a2.67 2.67 0 0 1-2.67 2.67V1.627a2.67 2.67 0 0 1 2.67 2.67Zm6.678 6.677a2.67 2.67 0 1 0-5.342 0h5.342ZM1.078 8.304v2.67a2.67 2.67 0 0 0 5.342 0v-2.67H1.078Zm6.678-1.336V1.627h2.67a2.67 2.67 0 1 1 0 5.341h-2.67Z" fill="#5417D7"/></g><defs><clipPath id="clip0_212_1586"><path fill="#fff" transform="translate(.41 .959)" d="M0 0h13.355v13.355H0z"/></clipPath></defs></symbol><symbol fill="none" xmlns="http://www.w3.org/2000/svg" viewBox="0 0 64 10" id="logo-footer"><path d="M7.842 5.52 5.617 9.331 3.392 5.52h4.45Zm.596-.34H2.793l2.824 4.825L8.438 5.18ZM11.711.78l2.225 3.811h-4.45L11.711.78Zm0-.681L8.887 4.924h5.648L11.71.1Z" fill="#fff"/><path d="m.088.099 2.368 4.268L5.043.206.088.099ZM5.617.473l2.484 4.244H3.129L5.617.473ZM8.74 5.644l2.486 4.361h-5.09l2.527-4.361h.077ZM9.278 5.38l2.433 4.294 2.467-4.295h-4.9Z" fill="#4CAF4F"/><path d="M24.867.788v8.405h-1.535l-3.656-5.29h-.062v5.29h-1.777V.788h1.56l3.628 5.286h.074V.788h1.768ZM29.176 9.316c-.649 0-1.207-.131-1.675-.394a2.699 2.699 0 0 1-1.075-1.124c-.252-.487-.378-1.063-.378-1.728 0-.649.126-1.218.378-1.708s.606-.871 1.063-1.145c.46-.273.999-.41 1.617-.41.416 0 .803.067 1.162.201.36.131.675.33.944.595.27.265.481.6.632 1.002.15.399.225.867.225 1.403v.48h-5.323V5.405h3.678c0-.252-.055-.475-.165-.67a1.176 1.176 0 0 0-.455-.455 1.3 1.3 0 0 0-.67-.168c-.265 0-.5.062-.705.185-.203.12-.361.283-.476.488a1.38 1.38 0 0 0-.177.677v1.03c0 .312.058.582.173.809.117.227.283.402.496.525.214.123.467.185.76.185.194 0 .372-.027.533-.082a1.07 1.07 0 0 0 .677-.648l1.617.106c-.082.389-.25.728-.504 1.018a2.534 2.534 0 0 1-.977.673c-.397.159-.855.238-1.375.238ZM34.559 2.889l1.157 2.204 1.186-2.204h1.794l-1.827 3.152 1.876 3.152H36.96l-1.244-2.18-1.223 2.18h-1.806l1.872-3.152-1.806-3.152h1.806ZM42.356 9.316c-.645 0-1.2-.137-1.666-.41a2.775 2.775 0 0 1-1.067-1.15c-.246-.49-.37-1.053-.37-1.69 0-.646.125-1.212.374-1.7.252-.49.609-.871 1.071-1.145.463-.276 1.013-.414 1.65-.414.55 0 1.032.1 1.445.3.413.2.74.48.98.84.242.362.374.786.399 1.273h-1.65a1.274 1.274 0 0 0-.37-.76c-.196-.193-.455-.29-.775-.29-.27 0-.508.073-.71.221a1.41 1.41 0 0 0-.468.636c-.112.28-.168.617-.168 1.014 0 .402.055.744.164 1.026.112.282.27.497.472.644.203.148.44.222.71.222.2 0 .379-.041.538-.123.161-.082.294-.201.398-.357.106-.159.176-.349.21-.57h1.649a2.584 2.584 0 0 1-.394 1.272 2.38 2.38 0 0 1-.965.853c-.41.206-.896.308-1.457.308ZM49.164 9.316c-.648 0-1.206-.131-1.674-.394a2.698 2.698 0 0 1-1.075-1.124c-.252-.487-.378-1.063-.378-1.728 0-.649.126-1.218.378-1.708a2.79 2.79 0 0 1 1.063-1.145c.46-.273.998-.41 1.617-.41.416 0 .803.067 1.161.201.361.131.676.33.944.595.271.265.482.6.632 1.002.15.399.226.867.226 1.403v.48h-5.323V5.405h3.677a1.34 1.34 0 0 0-.164-.67 1.176 1.176 0 0 0-.456-.455 1.3 1.3 0 0 0-.669-.168c-.265 0-.5.062-.706.185-.202.12-.36.283-.476.488a1.38 1.38 0 0 0-.176.677v1.03c0 .312.057.582.172.809.118.227.283.402.497.525.213.123.466.185.76.185.193 0 .371-.027.533-.082a1.071 1.071 0 0 0 .677-.648l1.617.106c-.082.389-.25.728-.505 1.018a2.534 2.534 0 0 1-.977.673c-.396.159-.855.238-1.375.238ZM54.947 5.548v3.645H53.2V2.889h1.666v1.112h.074a1.76 1.76 0 0 1 .702-.87c.328-.216.726-.324 1.194-.324.438 0 .82.096 1.145.287.326.192.579.465.76.821.18.353.27.774.27 1.264v4.014h-1.748V5.491c.003-.386-.096-.687-.295-.903-.2-.219-.475-.328-.825-.328-.236 0-.444.05-.624.152a1.058 1.058 0 0 0-.419.443c-.098.191-.149.423-.152.693ZM63.742 2.889v1.313h-3.797V2.89h3.797Zm-2.935-1.51h1.748v5.877c0 .161.025.287.074.377.05.088.118.15.206.185.09.036.194.053.311.053.082 0 .165-.006.247-.02l.188-.037.275 1.301c-.087.027-.21.059-.369.094a2.962 2.962 0 0 1-.579.07c-.421.017-.79-.04-1.108-.168a1.547 1.547 0 0 1-.734-.6c-.175-.27-.262-.612-.259-1.025V1.379Z" fill="#fff"/></symbol></svg>