   <svg width="0" height="0" class="hidden">
  <symbol fill="none" xmlns="http://www.w3.org/2000/svg" viewBox="0 0 11 12" id="ball">
    <path opacity="0.1" fill-rule="evenodd" clip-rule="evenodd" d="M0.113525 5.72721C0.113525 2.77698 2.50516 0.385345 5.45539 0.385345C8.40562 0.385345 10.7973 2.77698 10.7973 5.72721C10.7973 8.67744 8.40562 11.0691 5.45539 11.0691C2.50516 11.0691 0.113525 8.67744 0.113525 5.72721Z" fill="white"></path>
    <path fill-rule="evenodd" clip-rule="evenodd" d="M8.30443 5.72325C8.30443 5.91592 8.28482 6.10832 8.24629 6.29587C8.20872 6.47897 8.15308 6.65873 8.08018 6.83056C8.00896 6.99936 7.92062 7.16202 7.81739 7.31372C7.7157 7.46445 7.59856 7.60587 7.46987 7.73478C7.34091 7.86314 7.19901 7.97996 7.04835 8.08208C6.89615 8.18459 6.73326 8.2728 6.56436 8.34435C6.39227 8.41687 6.2121 8.47243 6.02917 8.50993C5.84137 8.54856 5.64826 8.56828 5.45531 8.56828C5.26222 8.56828 5.06912 8.54856 4.88159 8.50993C4.69838 8.47243 4.51822 8.41687 4.34626 8.34435C4.17738 8.2728 4.01432 8.18459 3.86213 8.08208C3.71147 7.97997 3.56957 7.86314 3.44088 7.73478C3.31206 7.60587 3.19492 7.46445 3.09309 7.31372C2.99042 7.16202 2.90193 6.99935 2.83043 6.83056C2.75752 6.65873 2.70174 6.47896 2.66404 6.29587C2.62593 6.10832 2.60645 5.91592 2.60645 5.72325C2.60645 5.53043 2.62592 5.33762 2.66405 5.15048C2.70176 4.96738 2.75753 4.78735 2.83044 4.61579C2.90194 4.44687 2.99043 4.28406 3.0931 4.13236C3.19493 3.9815 3.31207 3.84035 3.44089 3.71129C3.56958 3.58293 3.71148 3.46639 3.86214 3.36442C4.01434 3.26148 4.17739 3.17327 4.34627 3.10159C4.51823 3.02892 4.69838 2.97322 4.8816 2.936C5.06913 2.89766 5.26223 2.8782 5.45532 2.8782C5.64827 2.8782 5.84137 2.89766 6.02918 2.936C6.21211 2.97323 6.39227 3.02893 6.56437 3.10159C6.73326 3.17326 6.89616 3.26148 7.04836 3.36442C7.19902 3.46639 7.34093 3.58293 7.46989 3.71129C7.59857 3.84035 7.71572 3.9815 7.8174 4.13236C7.92062 4.28406 8.00896 4.44688 8.08018 4.61579C8.15308 4.78735 8.20872 4.96738 8.24629 5.15048C8.28482 5.33762 8.30443 5.53043 8.30443 5.72325ZM4.4172 3.5257C3.73871 3.84563 3.23232 4.46993 3.07442 5.22231C3.13856 5.22286 4.15246 5.23565 5.32063 4.92571C4.89952 4.17861 4.44962 3.56891 4.4172 3.5257ZM5.52221 5.29983C4.26945 5.67434 3.06733 5.64739 3.02421 5.64573C3.0235 5.67185 3.02225 5.69712 3.02225 5.72325C3.02225 6.34739 3.25806 6.9164 3.64564 7.34664C3.64481 7.34538 4.31064 6.16584 5.62363 5.74186C5.65534 5.73131 5.68763 5.72185 5.71962 5.71269C5.65856 5.57461 5.5919 5.43625 5.52221 5.29983ZM7.06212 3.89981C6.63377 3.52264 6.07132 3.29386 5.4553 3.29386C5.25761 3.29386 5.06577 3.31775 4.882 3.36192C4.91844 3.41083 5.37545 4.01623 5.79155 4.77915C6.7096 4.43548 7.05613 3.90869 7.06212 3.89981ZM5.88547 6.11527C5.88005 6.11707 5.87463 6.11861 5.86933 6.12055C4.43379 6.62028 3.965 7.62737 3.95993 7.63837C4.37298 7.95912 4.89105 8.15264 5.45532 8.15264C5.79225 8.15264 6.1132 8.08414 6.40521 7.9601C6.36918 7.74783 6.22783 7.00379 5.88547 6.11527ZM6.81491 7.73811C7.36122 7.36998 7.74921 6.78542 7.85745 6.10831C7.80737 6.0922 7.12666 5.87701 6.34134 6.00274C6.66047 6.87849 6.79014 7.59169 6.81491 7.73811ZM5.97882 5.14118C6.03529 5.25704 6.08998 5.37496 6.14047 5.49347C6.15842 5.53599 6.17595 5.57766 6.19306 5.61933C7.02888 5.51431 7.85232 5.69101 7.88752 5.69823C7.88196 5.12228 7.67564 4.5937 7.33426 4.17987C7.32966 4.18638 6.93943 4.74942 5.97882 5.14118Z" fill="white"></path>
  </symbol>
  <symbol fill="none" xmlns="http://www.w3.org/2000/svg" viewBox="0 0 34 34" id="club">
    <path d="M20.1283 16.8909C19.9607 16.8909 19.805 16.8448 19.6668 16.7707V16.7727C19.6668 17.0364 19.5643 17.284 19.3783 17.4695C19.1924 17.6555 18.9449 17.7579 18.6815 17.7579C18.5115 17.7579 18.3539 17.7107 18.2141 17.6346C18.2 17.8759 18.1036 18.1013 17.9316 18.2735C17.7456 18.4595 17.4981 18.562 17.2346 18.562C16.7109 18.562 16.2857 18.1504 16.2551 17.6345C16.093 17.722 15.9099 17.768 15.7209 17.7558C15.2058 17.722 14.8024 17.277 14.8024 16.7423V12.3107L14.2978 13.1849C14.1056 13.5193 13.7458 13.7269 13.3584 13.7269C13.1697 13.7269 12.9832 13.6774 12.8181 13.5828C12.6124 13.4635 12.4653 13.2722 12.4042 13.0432C12.3427 12.8141 12.3745 12.5745 12.4934 12.3692C12.4935 12.3692 14.1444 9.5103 14.2451 9.33469C14.2571 9.30828 14.2912 9.2317 14.3203 9.16643C14.348 9.10411 14.3718 9.04016 14.3945 8.97587C14.8924 7.57031 16.1252 6.69721 17.6119 6.69721C19.5426 6.69721 21.1133 8.40042 21.1133 10.494L21.1135 15.9055C21.1135 16.1688 21.0111 16.4163 20.8253 16.6025C20.6394 16.7884 20.3919 16.8909 20.1282 16.8909L20.1283 16.8909ZM17.6119 7.22075C16.3344 7.22075 15.3162 7.94234 14.888 9.15096C14.8606 9.22771 14.8321 9.30446 14.7988 9.37924C14.7022 9.59588 14.7022 9.59587 14.675 9.62703L14.6714 9.62391C14.5366 9.87827 14.1361 10.5718 12.9467 12.6312C12.8978 12.7157 12.8849 12.8137 12.9098 12.9075C12.935 13.0013 12.9956 13.0804 13.0794 13.1288C13.3394 13.2782 13.6956 13.1817 13.8439 12.9234L14.8375 11.2031C14.8969 11.1007 15.0169 11.0503 15.132 11.0815C15.2465 11.1121 15.3261 11.2159 15.3261 11.3343V16.7425C15.3261 16.9976 15.5186 17.2179 15.7552 17.2335C15.8917 17.2407 16.0189 17.1949 16.1145 17.0995C16.2015 17.0126 16.2493 16.8968 16.2493 16.773V13.236C16.2493 13.0913 16.3666 12.9741 16.5112 12.9741C16.6559 12.9741 16.7731 13.0912 16.7731 13.236L16.773 17.5769C16.773 17.8314 16.9801 18.0386 17.2346 18.0386C17.3583 18.0386 17.4744 17.9907 17.5614 17.9038C17.6484 17.8167 17.6962 17.7006 17.6962 17.5769V13.236C17.6962 13.0913 17.8133 12.9741 17.9581 12.9741C18.1028 12.9741 18.22 13.0912 18.22 13.236L18.2199 16.7323V16.773C18.2199 17.0273 18.427 17.2344 18.6817 17.2344C18.8052 17.2344 18.9209 17.1864 19.0085 17.0991C19.0954 17.0124 19.1433 16.8966 19.1433 16.7728V13.2358C19.1433 13.0911 19.2604 12.9739 19.4052 12.9739C19.5499 12.9739 19.6671 13.091 19.6671 13.2358L19.6668 15.9056C19.6668 16.1603 19.8739 16.3674 20.1283 16.3674C20.2521 16.3674 20.3678 16.3194 20.4548 16.2326C20.542 16.1454 20.5897 16.0292 20.5897 15.9056L20.5899 10.4941C20.5899 8.68938 19.254 7.22081 17.6119 7.22081L17.6119 7.22075Z" fill="#4CAF4F"></path>
    <path d="M9.83859 20.6521L13.6389 18.3722C14.0971 18.0971 14.6867 18.214 14.9806 18.6386C15.0878 18.7932 15.1426 18.9734 15.1511 19.157C15.2928 19.083 15.4469 19.0428 15.6039 19.0428C15.6842 19.0428 15.7649 19.0528 15.8446 19.0727C16.1 19.1365 16.3151 19.296 16.4504 19.5217C16.5859 19.7476 16.6254 20.0125 16.5616 20.2675C16.5027 20.5035 16.3592 20.7021 16.1597 20.8384C16.2992 20.9207 16.4196 21.033 16.5052 21.176C16.6407 21.402 16.6802 21.6667 16.6165 21.9221C16.5528 22.1771 16.3932 22.3922 16.1672 22.5279L16.1659 22.5287C16.303 22.6108 16.4212 22.722 16.5059 22.8629C16.6415 23.0889 16.681 23.3537 16.6172 23.6091C16.5533 23.8642 16.3937 24.0794 16.168 24.2149L11.5278 26.9986C10.6617 27.518 9.66053 27.6973 8.70905 27.5029C7.74904 27.3068 6.95398 26.755 6.47056 25.9491C5.70552 24.6741 5.82017 23.1676 6.76919 22.0178C6.81265 21.9654 6.85545 21.9119 6.89432 21.8565C6.93548 21.7979 6.98353 21.7291 6.99993 21.7054C7.09816 21.53 8.70104 18.642 8.70088 18.6424C8.86274 18.3503 9.16612 18.185 9.47901 18.1852C9.62497 18.1852 9.77305 18.2211 9.90967 18.2968C10.0746 18.389 10.2132 18.5233 10.3101 18.6852C10.5094 19.0173 10.5164 19.4328 10.3288 19.7691L9.83859 20.6521ZM9.86138 18.9544C9.81055 18.8696 9.74068 18.802 9.65524 18.7542C9.47862 18.6564 9.25625 18.7201 9.15901 18.896C8.01206 20.9623 7.62109 21.6665 7.4702 21.9171L7.47365 21.9179C7.46102 21.9599 7.46102 21.9599 7.32294 22.1572C7.27604 22.2239 7.22504 22.288 7.17305 22.3512C6.357 23.3399 6.26225 24.5841 6.91935 25.6797C7.32638 26.3583 7.99909 26.8236 8.81362 26.9899C9.63702 27.1573 10.5049 27.0015 11.2581 26.5496L15.8988 23.7656C16.0048 23.7022 16.0795 23.6013 16.1094 23.4818C16.1392 23.3624 16.1207 23.2382 16.0571 23.1323C15.9262 22.9142 15.642 22.8425 15.4239 22.9739L13.1346 24.3473C13.0106 24.4218 12.8495 24.3818 12.7753 24.2576C12.7008 24.1336 12.741 23.9728 12.865 23.8983L15.1545 22.5249L15.898 22.0788C16.0039 22.0152 16.0789 21.9143 16.1087 21.7951C16.1386 21.6756 16.12 21.5513 16.0564 21.4455C15.9254 21.2272 15.6412 21.1562 15.4232 21.2871L12.3902 23.1066C12.2659 23.1812 12.1053 23.1408 12.0309 23.0169C11.9564 22.8929 11.9968 22.732 12.1206 22.6576L15.8431 20.4245C15.949 20.3609 16.0238 20.2602 16.0536 20.1406C16.0835 20.0212 16.0649 19.8971 16.0015 19.7911C15.938 19.6854 15.8372 19.6106 15.7176 19.5807C15.5974 19.5509 15.4738 19.5694 15.3681 19.6327L14.679 20.0462C14.6789 20.0462 14.6789 20.0463 14.6787 20.0463H14.6786L11.6457 21.8658C11.5214 21.9406 11.3607 21.9003 11.2864 21.7761C11.2119 21.6521 11.2523 21.4913 11.3761 21.4168L14.4091 19.5973C14.5151 19.5337 14.59 19.4328 14.6198 19.3136C14.6526 19.1827 14.6277 19.0489 14.55 18.9368C14.4152 18.7418 14.1269 18.6899 13.9083 18.8213L9.27095 21.6033C9.16944 21.664 9.0394 21.6492 8.95428 21.567C8.86901 21.4847 8.84982 21.3553 8.90722 21.2518L9.8715 19.5145C9.96826 19.3408 9.96448 19.1263 9.86133 18.9545L9.86138 18.9544Z" fill="#4CAF4F"></path>
    <path d="M27.9983 25.949C27.515 26.755 26.7202 27.3067 25.76 27.5028C24.8084 27.6968 23.8075 27.5179 22.9413 26.9985L18.3006 24.2146C18.0748 24.0792 17.9151 23.864 17.8511 23.6085C17.7876 23.3535 17.8273 23.0886 17.9626 22.863C18.0471 22.7219 18.1655 22.6107 18.3027 22.5286L18.3014 22.5278C18.0756 22.3923 17.9159 22.1772 17.8523 21.922C17.7883 21.6668 17.828 21.4018 17.9635 21.1758C18.0507 21.0307 18.1702 20.9172 18.3067 20.8367C18.1086 20.7004 17.9659 20.5025 17.9072 20.2676C17.8432 20.0123 17.8829 19.7474 18.0184 19.5218C18.1537 19.2959 18.369 19.1364 18.6242 19.0726C18.7039 19.0526 18.7847 19.0427 18.8648 19.0427C19.0219 19.0429 19.176 19.0828 19.3177 19.1569C19.3264 18.9734 19.381 18.7932 19.4883 18.6385C19.7823 18.2143 20.3714 18.0968 20.8302 18.3722L24.6304 20.6517L24.1406 19.7694C23.9527 19.4325 23.9595 19.017 24.1588 18.6847C24.2559 18.523 24.3946 18.3887 24.5604 18.2957C24.6967 18.2203 24.8443 18.1846 24.9899 18.1846C25.3026 18.1847 25.6064 18.3497 25.768 18.6418C26.3315 19.6571 27.3948 21.5718 27.4696 21.7055C27.4855 21.7286 27.5336 21.7975 27.5747 21.856C27.6139 21.9116 27.6562 21.9648 27.7 22.0176C28.6489 23.1678 28.7633 24.6741 27.9983 25.949L27.9983 25.949ZM27.296 22.3513C27.2438 22.2882 27.1927 22.2237 27.1461 22.1573C27.0044 21.9563 27.0008 21.951 26.9901 21.8984C26.8245 21.6244 26.4204 20.8969 25.3097 18.8958C25.2123 18.7202 24.9909 18.6561 24.8146 18.7535C24.7279 18.802 24.6582 18.8697 24.6073 18.9545C24.5044 19.1262 24.5004 19.3407 24.5977 19.5149L25.5616 21.2518C25.6192 21.3554 25.6 21.4846 25.5149 21.5669C25.4299 21.6494 25.3001 21.6639 25.198 21.6032L20.5607 18.8212C20.3421 18.6902 20.054 18.7415 19.9188 18.9367C19.8411 19.0488 19.8163 19.1826 19.8488 19.3133C19.8787 19.4327 19.9536 19.5334 20.0597 19.5971C20.06 19.5972 20.0602 19.5975 20.0605 19.5977L23.0926 21.4167C23.2166 21.4912 23.2568 21.6519 23.1823 21.776C23.1079 21.8998 22.9473 21.9403 22.823 21.8657L19.1005 19.6327C18.9949 19.5694 18.8706 19.5507 18.7512 19.5807C18.6315 19.6105 18.5308 19.6853 18.4674 19.7914C18.4037 19.8972 18.3854 20.0213 18.4149 20.1407C18.4447 20.2601 18.5197 20.3609 18.6256 20.4246L19.35 20.859L22.3479 22.6577C22.4719 22.7321 22.5121 22.8928 22.4376 23.017C22.3632 23.1408 22.2026 23.1811 22.0783 23.1067L19.0456 21.2872C18.8275 21.156 18.5435 21.2272 18.4123 21.4456C18.3486 21.5515 18.3303 21.6757 18.3598 21.7951C18.3896 21.9145 18.4646 22.0151 18.5707 22.0789L19.3142 22.525L21.6034 23.8984C21.7274 23.9729 21.7675 24.1336 21.6931 24.2577C21.6186 24.3816 21.4581 24.4222 21.3338 24.3475L19.0446 22.974C18.939 22.9107 18.8152 22.892 18.6951 22.922C18.5758 22.9519 18.4747 23.0266 18.4113 23.1324C18.3478 23.2384 18.3293 23.3627 18.3588 23.4819C18.3886 23.6013 18.4636 23.702 18.5697 23.7658L23.2104 26.5497C23.9635 27.0015 24.8319 27.1579 25.6549 26.99C26.4692 26.8237 27.142 26.3584 27.549 25.6799C28.2068 24.584 28.1121 23.3397 27.2963 22.3513L27.296 22.3513Z" fill="#4CAF4F"></path>
  </symbol>
  <symbol fill="none" xmlns="http://www.w3.org/2000/svg" viewBox="0 0 23 20" id="clubs">
    <path d="M22.6287 13.1845C22.6287 16.5035 19.9381 19.1941 16.6191 19.1941L7.60467 19.1941C6.68272 19.1941 5.93534 18.4467 5.93534 17.5248L5.93534 6.17329C5.93534 4.3294 7.43011 2.83463 9.274 2.83463L20.9593 2.83463C21.8813 2.83463 22.6287 3.58202 22.6287 4.50396L22.6287 13.1845Z" fill="#E8F5E9"></path>
    <path d="M10.3797 8.3917C10.2993 8.3917 10.2246 8.36959 10.1583 8.33404V8.33499C10.1583 8.46147 10.1092 8.58025 10.02 8.66921C9.93078 8.75841 9.81209 8.80757 9.68575 8.80757C9.60419 8.80757 9.5286 8.78492 9.46157 8.74842C9.45481 8.86413 9.40856 8.97228 9.32605 9.05488C9.23685 9.14408 9.11816 9.19324 8.99174 9.19324C8.74058 9.19324 8.53661 8.99581 8.52191 8.74834C8.4442 8.79034 8.35634 8.81237 8.26572 8.80655C8.01864 8.79034 7.82515 8.57687 7.82515 8.32043V6.19482L7.58311 6.61414C7.49092 6.77453 7.31836 6.87411 7.13256 6.87411C7.04202 6.87411 6.95259 6.85035 6.87338 6.80497C6.77474 6.74778 6.70419 6.65599 6.67484 6.54617C6.64535 6.43629 6.66061 6.32137 6.71763 6.22288C6.71771 6.22288 7.50956 4.85162 7.55787 4.76739C7.56361 4.75473 7.57998 4.718 7.5939 4.68669C7.60719 4.6568 7.6186 4.62612 7.62953 4.59529C7.86833 3.92112 8.45962 3.50234 9.17273 3.50234C10.0988 3.50234 10.8522 4.31928 10.8522 5.32344L10.8522 7.91904C10.8522 8.04537 10.8032 8.16406 10.714 8.25335C10.6248 8.34255 10.5061 8.39171 10.3797 8.39171L10.3797 8.3917ZM9.17274 3.75345C8.55998 3.75345 8.07159 4.09956 7.86622 4.67927C7.85309 4.71608 7.8394 4.75289 7.82343 4.78876C7.7771 4.89267 7.7771 4.89267 7.76404 4.90761L7.76231 4.90612C7.69766 5.02812 7.50557 5.36076 6.93507 6.34856C6.91163 6.38907 6.90541 6.43611 6.91737 6.4811C6.92948 6.52609 6.95851 6.564 6.9987 6.58721C7.12345 6.65886 7.2943 6.61261 7.36541 6.48873L7.842 5.66359C7.87047 5.61443 7.92805 5.59028 7.98327 5.60523C8.03817 5.61994 8.07632 5.66973 8.07632 5.72652V8.32051C8.07632 8.4429 8.16866 8.54853 8.28218 8.556C8.34762 8.55946 8.40866 8.53752 8.45452 8.49174C8.49621 8.45005 8.51917 8.39452 8.51917 8.33513V6.63863C8.51917 6.56925 8.57541 6.51301 8.64479 6.51301C8.71417 6.51301 8.77041 6.56917 8.77041 6.63863L8.77033 8.72074C8.77033 8.84282 8.86967 8.94217 8.99175 8.94217C9.05106 8.94217 9.10675 8.9192 9.14852 8.87751C9.19021 8.83574 9.21317 8.78005 9.21317 8.72074V6.63863C9.21317 6.56925 9.26934 6.51301 9.33879 6.51301C9.40817 6.51301 9.46441 6.56917 9.46441 6.63863L9.46433 8.31562V8.33512C9.46433 8.45712 9.56368 8.55646 9.68583 8.55646C9.74506 8.55646 9.80059 8.53342 9.8426 8.49157C9.88429 8.44996 9.90725 8.39443 9.90725 8.33504V6.63854C9.90725 6.56916 9.96342 6.51292 10.0329 6.51292C10.1022 6.51292 10.1585 6.56908 10.1585 6.63854L10.1583 7.9191C10.1583 8.04126 10.2577 8.1406 10.3797 8.1406C10.4391 8.1406 10.4946 8.11756 10.5363 8.07595C10.5781 8.0341 10.601 7.97841 10.601 7.9191L10.6011 5.3235C10.6011 4.45788 9.96035 3.75348 9.17273 3.75348L9.17274 3.75345Z" fill="#103E13"></path>
    <path d="M5.44427 10.1957L7.26708 9.10216C7.48685 8.97017 7.76963 9.02626 7.91058 9.2299C7.96203 9.30408 7.9883 9.39052 7.99239 9.47855C8.06035 9.44307 8.13429 9.4238 8.20956 9.4238C8.2481 9.4238 8.2868 9.4286 8.32503 9.43812C8.4475 9.46871 8.5507 9.54525 8.6156 9.65348C8.68057 9.76187 8.69953 9.88889 8.66893 10.0112C8.64069 10.1244 8.57187 10.2197 8.47614 10.285C8.54308 10.3245 8.60081 10.3784 8.64187 10.447C8.70685 10.5554 8.7258 10.6824 8.69528 10.8048C8.66468 10.9271 8.58815 11.0303 8.47976 11.0954L8.47913 11.0958C8.54489 11.1352 8.6016 11.1885 8.64219 11.2561C8.70724 11.3645 8.7262 11.4915 8.6956 11.614C8.66492 11.7364 8.58839 11.8396 8.48016 11.9045L6.25447 13.2398C5.83907 13.4889 5.35886 13.5749 4.90249 13.4817C4.44202 13.3876 4.06068 13.1229 3.82881 12.7364C3.46186 12.1248 3.51685 11.4022 3.97204 10.8508C3.99289 10.8256 4.01342 10.8 4.03206 10.7734C4.0518 10.7453 4.07485 10.7122 4.08272 10.7009C4.12983 10.6168 4.89865 9.23158 4.89857 9.23174C4.9762 9.09165 5.12172 9.01235 5.2718 9.01243C5.3418 9.01243 5.41283 9.02966 5.47836 9.066C5.55749 9.1102 5.62395 9.17462 5.67044 9.25226C5.76601 9.41154 5.76939 9.61087 5.67941 9.77218L5.44427 10.1957ZM5.4552 9.38139C5.43082 9.34073 5.39731 9.30832 5.35632 9.28535C5.27161 9.23847 5.16495 9.26899 5.11831 9.35339C4.56818 10.3445 4.38065 10.6822 4.30828 10.8024L4.30993 10.8028C4.30387 10.823 4.30387 10.823 4.23765 10.9176C4.21515 10.9496 4.19069 10.9804 4.16575 11.0106C3.77434 11.4849 3.72889 12.0817 4.04407 12.6072C4.2393 12.9327 4.56196 13.1558 4.95265 13.2356C5.34758 13.3159 5.76385 13.2412 6.12513 13.0244L8.35102 11.6891C8.40184 11.6586 8.43771 11.6103 8.45202 11.5529C8.46634 11.4957 8.45745 11.4361 8.42693 11.3853C8.36416 11.2807 8.22785 11.2463 8.12323 11.3093L7.02517 11.9681C6.9657 12.0038 6.88846 11.9846 6.85283 11.9251C6.81712 11.8656 6.83639 11.7884 6.89585 11.7527L7.994 11.094L8.35063 10.88C8.40145 10.8495 8.43739 10.8011 8.45171 10.7439C8.46602 10.6866 8.45714 10.627 8.42662 10.5762C8.36377 10.4715 8.22745 10.4375 8.12292 10.5002L6.66814 11.373C6.60851 11.4088 6.53151 11.3894 6.4958 11.3299C6.46009 11.2705 6.47943 11.1933 6.53882 11.1576L8.32429 10.0865C8.3751 10.056 8.41097 10.0077 8.42528 9.95036C8.4396 9.89309 8.43071 9.83355 8.40027 9.78274C8.36983 9.732 8.32145 9.69613 8.26411 9.68182C8.20645 9.6675 8.14715 9.67639 8.09649 9.70675L7.76597 9.90505C7.76589 9.90505 7.76589 9.90513 7.76581 9.90513H7.76573L6.31103 10.7778C6.25141 10.8137 6.17432 10.7944 6.13869 10.7348C6.10298 10.6754 6.12233 10.5982 6.18172 10.5625L7.6365 9.68977C7.68731 9.65925 7.72326 9.61087 7.73758 9.55369C7.75331 9.49092 7.74135 9.42673 7.70407 9.37293C7.63941 9.27941 7.50113 9.25455 7.39628 9.31755L5.172 10.6519C5.12331 10.681 5.06094 10.6739 5.02011 10.6345C4.97921 10.5951 4.97001 10.533 4.99754 10.4834L5.46005 9.65005C5.50646 9.56675 5.50465 9.46386 5.45517 9.38142L5.4552 9.38139Z" fill="#103E13"></path>
    <path d="M14.1547 12.7363C13.9229 13.1229 13.5416 13.3875 13.0811 13.4816C12.6246 13.5747 12.1446 13.4888 11.7291 13.2397L9.50319 11.9044C9.39488 11.8395 9.31827 11.7363 9.28759 11.6137C9.25715 11.4914 9.27619 11.3643 9.34108 11.2561C9.38159 11.1885 9.43838 11.1351 9.50422 11.0957L9.50359 11.0953C9.39527 11.0304 9.31866 10.9272 9.28815 10.8048C9.25747 10.6824 9.2765 10.5553 9.34148 10.4469C9.38332 10.3773 9.44066 10.3228 9.50611 10.2842C9.41109 10.2189 9.34266 10.1239 9.3145 10.0113C9.28382 9.8888 9.30286 9.76176 9.36783 9.65352C9.43272 9.54521 9.536 9.46868 9.6584 9.43808C9.69662 9.42849 9.7354 9.42377 9.77379 9.42377C9.84914 9.42384 9.92308 9.44296 9.99104 9.47851C9.99521 9.39049 10.0214 9.30405 10.0728 9.22987C10.2139 9.02639 10.4964 8.97007 10.7165 9.10213L12.5393 10.1955L12.3043 9.77229C12.2142 9.61073 12.2175 9.4114 12.313 9.25204C12.3596 9.17448 12.4262 9.11006 12.5057 9.06546C12.571 9.02928 12.6418 9.01214 12.7117 9.01214C12.8617 9.01221 13.0074 9.09134 13.0849 9.23144C13.3552 9.71842 13.8652 10.6368 13.9011 10.7009C13.9087 10.712 13.9317 10.7451 13.9515 10.7732C13.9703 10.7998 13.9906 10.8253 14.0116 10.8506C14.4667 11.4023 14.5216 12.1248 14.1547 12.7363L14.1547 12.7363ZM13.8178 11.0107C13.7928 10.9804 13.7682 10.9495 13.7459 10.9177C13.6779 10.8212 13.6762 10.8187 13.6711 10.7935C13.5916 10.662 13.3978 10.3131 12.8651 9.35329C12.8184 9.26905 12.7122 9.2383 12.6276 9.28502C12.586 9.3083 12.5526 9.34079 12.5282 9.38145C12.4788 9.46381 12.4769 9.56669 12.5235 9.65024L12.9859 10.4833C13.0135 10.533 13.0043 10.595 12.9635 10.6345C12.9227 10.674 12.8604 10.681 12.8115 10.6519L10.5872 9.3175C10.4824 9.25465 10.3442 9.27928 10.2794 9.37288C10.2421 9.42668 10.2302 9.49087 10.2458 9.55356C10.2601 9.61082 10.296 9.65912 10.3469 9.68964C10.3471 9.68971 10.3472 9.68987 10.3473 9.68995L11.8016 10.5624C11.8611 10.5981 11.8804 10.6752 11.8447 10.7348C11.809 10.7942 11.732 10.8136 11.6723 10.7778L9.88687 9.70671C9.83621 9.67635 9.77659 9.66738 9.71933 9.68178C9.66191 9.69609 9.61361 9.73196 9.58317 9.78285C9.55265 9.83358 9.54384 9.89313 9.558 9.95039C9.57232 10.0077 9.60826 10.056 9.65907 10.0865L10.0065 10.2949L11.4445 11.1577C11.5039 11.1934 11.5232 11.2704 11.4875 11.33C11.4518 11.3894 11.3748 11.4087 11.3151 11.373L9.86052 10.5003C9.75591 10.4374 9.61967 10.4715 9.55674 10.5763C9.52622 10.6271 9.51741 10.6866 9.53157 10.7439C9.54589 10.8012 9.58184 10.8495 9.63273 10.8801L9.98936 11.094L11.0873 11.7528C11.1468 11.7885 11.1661 11.8656 11.1304 11.9251C11.0947 11.9845 11.0177 12.004 10.958 11.9681L9.86005 11.3094C9.80939 11.279 9.75001 11.27 9.69243 11.2844C9.63516 11.2988 9.58671 11.3346 9.55627 11.3854C9.52583 11.4362 9.51694 11.4958 9.5311 11.553C9.54542 11.6102 9.58136 11.6585 9.63226 11.6891L11.8581 13.0244C12.2194 13.2411 12.6359 13.3162 13.0306 13.2356C13.4212 13.1559 13.7439 12.9327 13.9391 12.6072C14.2546 12.0816 14.2092 11.4848 13.8179 11.0107L13.8178 11.0107Z" fill="#103E13"></path>
  </symbol>
  <symbol fill="none" xmlns="http://www.w3.org/2000/svg" viewBox="0 0 17 4" id="dot">
    <circle cx="2.37429" cy="2.01967" r="1.66933" fill="#4CAF4F"></circle>
    <circle opacity="0.3" cx="8.38393" cy="2.01967" r="1.66933" fill="#4CAF4F"></circle>
    <circle opacity="0.3" cx="14.3936" cy="2.01967" r="1.66933" fill="#4CAF4F"></circle>
  </symbol>
  <symbol fill="none" xmlns="http://www.w3.org/2000/svg" viewBox="0 0 17 17" id="event">
    <path d="M14.0917 14.4071V13.0717C14.0917 12.3633 13.8103 11.6839 13.3094 11.183C12.8085 10.6821 12.1291 10.4007 11.4208 10.4007H10.753C10.5759 10.4007 10.4061 10.3304 10.2809 10.2052C10.1556 10.0799 10.0853 9.9101 10.0853 9.733V6.39434C10.0853 6.04015 9.94459 5.70047 9.69414 5.45002C9.44369 5.19957 9.10401 5.05887 8.74982 5.05887C8.39564 5.05887 8.05595 5.19957 7.80551 5.45002C7.55506 5.70047 7.41436 6.04015 7.41436 6.39434V12.4039L5.8118 10.2672C5.6874 10.1013 5.5261 9.96671 5.34066 9.87399C5.15523 9.78127 4.95075 9.733 4.74343 9.733H4.45363C3.87604 9.733 3.40796 10.2011 3.40796 10.7787C3.40796 10.9683 3.45937 11.1546 3.55686 11.3169L5.41116 14.4071M8.74982 3.05567V2.38794V3.05567ZM12.7562 7.06207H13.424H12.7562ZM4.07569 7.06207H4.74343H4.07569ZM5.64019 3.95244L5.1681 3.48035L5.64019 3.95244ZM11.8595 3.95244L12.3315 3.48035L11.8595 3.95244Z" fill="#4CAF4F"></path>
    <path d="M14.0917 14.4071V13.0717C14.0917 12.3633 13.8103 11.6839 13.3094 11.183C12.8085 10.6821 12.1291 10.4007 11.4208 10.4007H10.753C10.5759 10.4007 10.4061 10.3304 10.2809 10.2052C10.1556 10.0799 10.0853 9.9101 10.0853 9.733V6.39434C10.0853 6.04015 9.94459 5.70047 9.69414 5.45002C9.44369 5.19957 9.10401 5.05887 8.74982 5.05887V5.05887C8.39564 5.05887 8.05596 5.19957 7.80551 5.45002C7.55506 5.70047 7.41436 6.04015 7.41436 6.39434V12.4039L5.8118 10.2672C5.6874 10.1013 5.5261 9.96671 5.34066 9.87399C5.15523 9.78127 4.95075 9.733 4.74343 9.733H4.45363C3.87604 9.733 3.40796 10.2011 3.40796 10.7787C3.40796 10.9683 3.45937 11.1546 3.55686 11.3169L5.41116 14.4071M8.74982 3.05567V2.38794M12.7562 7.06207H13.424M4.07569 7.06207H4.74343M5.64019 3.95244L5.1681 3.48035M11.8595 3.95244L12.3315 3.48035" stroke="#4CAF4F" stroke-width="0.667733" stroke-linecap="round" stroke-linejoin="round"></path>
  </symbol>
  <symbol fill="none" xmlns="http://www.w3.org/2000/svg" viewBox="0 0 11 12" id="instagram">
    <path opacity="0.1" fill-rule="evenodd" clip-rule="evenodd" d="M0.0880127 5.72721C0.0880127 2.77698 2.47965 0.385345 5.42988 0.385345C8.38011 0.385345 10.7717 2.77698 10.7717 5.72721C10.7717 8.67744 8.38011 11.0691 5.42988 11.0691C2.47965 11.0691 0.0880127 8.67744 0.0880127 5.72721Z" fill="white"></path>
    <path fill-rule="evenodd" clip-rule="evenodd" d="M5.43007 2.8782C4.65632 2.8782 4.55922 2.88159 4.25532 2.89542C3.95202 2.90931 3.74499 2.95732 3.56384 3.02778C3.37646 3.10055 3.21751 3.19789 3.05915 3.35631C2.90067 3.51466 2.80333 3.67362 2.73032 3.86094C2.65969 4.04215 2.61162 4.24924 2.59796 4.55242C2.58437 4.85632 2.58081 4.95348 2.58081 5.72723C2.58081 6.50098 2.58425 6.59778 2.59802 6.90168C2.61197 7.20498 2.65999 7.41201 2.73038 7.59316C2.80321 7.78054 2.90055 7.9395 3.05897 8.09785C3.21727 8.25633 3.37622 8.35391 3.56349 8.42668C3.74476 8.49713 3.95184 8.54515 4.25509 8.55904C4.55898 8.57287 4.65603 8.57625 5.42972 8.57625C6.20352 8.57625 6.30033 8.57287 6.60423 8.55904C6.90753 8.54515 7.1148 8.49713 7.29606 8.42668C7.48339 8.35391 7.6421 8.25633 7.8004 8.09785C7.95888 7.9395 8.05622 7.78054 8.12923 7.59322C8.19926 7.41201 8.24734 7.20492 8.26159 6.90174C8.27524 6.59784 8.2788 6.50098 8.2788 5.72723C8.2788 4.95348 8.27524 4.85638 8.26159 4.55248C8.24734 4.24918 8.19926 4.04215 8.12923 3.861C8.05622 3.67362 7.95888 3.51466 7.8004 3.35631C7.64192 3.19783 7.48345 3.10049 7.29589 3.02778C7.11426 2.95732 6.90711 2.90931 6.60381 2.89542C6.29991 2.88159 6.20317 2.8782 5.42918 2.8782H5.43007ZM5.17448 3.39161C5.25033 3.3915 5.33497 3.39161 5.43006 3.39161C6.19075 3.39161 6.28091 3.39434 6.5813 3.408C6.85908 3.4207 7.00984 3.46711 7.11027 3.50611C7.24323 3.55775 7.33802 3.61948 7.43767 3.71919C7.53739 3.81891 7.59912 3.91388 7.65087 4.04683C7.68987 4.14714 7.73634 4.2979 7.74899 4.57568C7.76264 4.87602 7.76561 4.96623 7.76561 5.72657C7.76561 6.4869 7.76264 6.57712 7.74899 6.87745C7.73629 7.15523 7.68987 7.306 7.65087 7.4063C7.59924 7.53926 7.53739 7.63393 7.43767 7.73359C7.33796 7.8333 7.24329 7.89503 7.11027 7.94667C7.00996 7.98584 6.85908 8.03214 6.5813 8.04484C6.28097 8.05849 6.19075 8.06146 5.43006 8.06146C4.66931 8.06146 4.57915 8.05849 4.27882 8.04484C4.00104 8.03202 3.85028 7.98561 3.74979 7.94661C3.61683 7.89497 3.52187 7.83324 3.42215 7.73353C3.32243 7.63381 3.26071 7.53908 3.20895 7.40607C3.16995 7.30576 3.12348 7.155 3.11084 6.87722C3.09718 6.57688 3.09445 6.48666 3.09445 5.72586C3.09445 4.96505 3.09718 4.8753 3.11084 4.57497C3.12354 4.29719 3.16995 4.14643 3.20895 4.046C3.26059 3.91305 3.32243 3.81808 3.42215 3.71836C3.52187 3.61865 3.61683 3.55692 3.74979 3.50516C3.85022 3.46599 4.00104 3.41969 4.27882 3.40693C4.54164 3.39506 4.64349 3.3915 5.17448 3.3909V3.39161ZM6.95085 3.86467C6.7621 3.86467 6.60896 4.01763 6.60896 4.20644C6.60896 4.39518 6.7621 4.54832 6.95085 4.54832C7.13959 4.54832 7.29273 4.39518 7.29273 4.20644C7.29273 4.01769 7.13959 3.86467 6.95085 3.86467ZM5.43008 4.26413C4.62208 4.26413 3.96698 4.91923 3.96698 5.72722C3.96698 6.53522 4.62208 7.19002 5.43008 7.19002C6.23807 7.19002 6.89293 6.53522 6.89293 5.72722C6.89293 4.91923 6.23807 4.26413 5.43008 4.26413ZM5.43007 4.77755C5.95452 4.77755 6.37974 5.2027 6.37974 5.72722C6.37974 6.25168 5.95452 6.6769 5.43007 6.6769C4.90555 6.6769 4.48039 6.25168 4.48039 5.72722C4.48039 5.2027 4.90555 4.77755 5.43007 4.77755Z" fill="white"></path>
  </symbol>
  <symbol fill="none" xmlns="http://www.w3.org/2000/svg" viewBox="0 0 17 17" id="logo-first">
    <g clip-path="url(#clip0_212_1121)">
      <path fill-rule="evenodd" clip-rule="evenodd" d="M4.7509 2.08032C6.59477 2.08032 8.08956 3.57509 8.08956 5.41899V2.08032H11.4282C13.2721 2.08032 14.7669 3.57509 14.7669 5.41899C14.7669 7.26287 13.2721 8.75765 11.4282 8.75765C13.2721 8.75765 14.7669 10.2524 14.7669 12.0963C14.7669 13.0119 14.3983 13.8414 13.8015 14.4445L13.789 14.4571L13.7779 14.4681C13.1746 15.0658 12.3446 15.435 11.4282 15.435C10.5181 15.435 9.69309 15.0708 9.09083 14.4803C9.08302 14.4726 9.0752 14.4649 9.06742 14.4571C9.06011 14.4498 9.05283 14.4425 9.04559 14.4351C8.45428 13.8327 8.08956 13.0071 8.08956 12.0963C8.08956 13.9402 6.59477 15.435 4.7509 15.435C2.907 15.435 1.41223 13.9402 1.41223 12.0963V8.75765H4.7509C2.907 8.75765 1.41223 7.26287 1.41223 5.41899C1.41223 3.57509 2.907 2.08032 4.7509 2.08032ZM7.42183 5.41899C7.42183 6.89411 6.22602 8.08992 4.7509 8.08992V2.74806C6.22602 2.74806 7.42183 3.94387 7.42183 5.41899ZM14.0992 12.0963C14.0992 10.6212 12.9033 9.42539 11.4282 9.42539C9.9531 9.42539 8.7573 10.6212 8.7573 12.0963H14.0992ZM2.07996 9.42539V12.0963C2.07996 13.5714 3.27578 14.7673 4.7509 14.7673C6.22602 14.7673 7.42183 13.5714 7.42183 12.0963V9.42539H2.07996ZM8.7573 8.08992V2.74806H11.4282C12.9033 2.74806 14.0992 3.94387 14.0992 5.41899C14.0992 6.89411 12.9033 8.08992 11.4282 8.08992H8.7573Z" fill="#263238"></path>
    </g>
    <defs>
      <clipPath id="clip0_212_1121">
        <rect width="13.3547" height="13.3547" fill="white" transform="translate(1.41223 2.08032)"></rect>
      </clipPath>
    </defs>
  </symbol>
  <symbol fill="none" xmlns="http://www.w3.org/2000/svg" viewBox="0 0 17 17" id="logo-four">
    <g clip-path="url(#clip0_212_1131)">
      <path d="M15.3939 5.22257C15.3939 5.23386 15.3939 5.24797 15.3909 5.25644C15.3762 5.36651 15.3762 5.47658 15.385 5.58948C15.3909 5.6177 15.3968 5.64592 15.4203 5.6685C15.4586 5.71083 15.5174 5.70237 15.5409 5.65157C15.5527 5.62617 15.5527 5.60076 15.5468 5.57536C15.5174 5.46811 15.5115 5.35522 15.5086 5.24515C15.5086 5.23951 15.5086 5.23104 15.5086 5.22257C15.5409 5.21975 15.5703 5.21693 15.5968 5.21693C15.6174 5.21411 15.635 5.21128 15.6497 5.20281C15.6938 5.18024 15.6938 5.13226 15.6468 5.10968C15.6291 5.10121 15.6056 5.09839 15.585 5.09839C15.5115 5.10121 15.438 5.10121 15.3645 5.10121C15.338 5.10121 15.3115 5.10404 15.2851 5.10686C15.2704 5.10968 15.2527 5.10968 15.241 5.11815C15.2204 5.12661 15.2086 5.14072 15.2086 5.16048C15.2116 5.18024 15.2204 5.19153 15.241 5.19999C15.2527 5.20846 15.2674 5.21128 15.2821 5.21128C15.3174 5.21411 15.3556 5.21975 15.3939 5.22257ZM16.2025 5.3524C16.2025 5.35522 16.2055 5.35804 16.2055 5.35804C16.2172 5.43425 16.229 5.50763 16.2378 5.58101C16.2408 5.60641 16.2437 5.62899 16.2614 5.64874C16.2996 5.69672 16.3584 5.69108 16.3848 5.64028C16.3966 5.61488 16.3996 5.58948 16.3937 5.56125C16.376 5.47658 16.3672 5.39191 16.3496 5.31006C16.3378 5.25926 16.3231 5.21128 16.3084 5.16613C16.2996 5.1379 16.279 5.11814 16.2437 5.11532C16.2084 5.10968 16.182 5.12661 16.1672 5.15201C16.1496 5.17459 16.1349 5.19717 16.1231 5.22257C16.1026 5.26773 16.0849 5.31289 16.0614 5.35522C16.0584 5.36651 16.0555 5.37498 16.0496 5.38344C16.0467 5.3778 16.0438 5.37498 16.0438 5.37498C16.0055 5.30442 15.9702 5.23386 15.932 5.16613C15.9261 5.16048 15.9232 5.15484 15.9202 5.14919C15.9026 5.12379 15.882 5.10968 15.8497 5.10968C15.8203 5.1125 15.7967 5.12944 15.782 5.15484C15.7761 5.16613 15.7761 5.17459 15.7732 5.18588C15.7614 5.2762 15.7467 5.36651 15.735 5.45683C15.7291 5.50763 15.7262 5.55843 15.7262 5.60923C15.7232 5.62052 15.7262 5.63463 15.732 5.64592C15.7379 5.6685 15.7556 5.68261 15.7791 5.68543C15.8085 5.68826 15.8291 5.67979 15.8379 5.65721C15.8467 5.64028 15.8497 5.62617 15.8526 5.61205C15.8644 5.56125 15.8732 5.51327 15.882 5.46529C15.8879 5.43707 15.8908 5.41449 15.8997 5.38344C15.9055 5.39473 15.9114 5.4032 15.9173 5.41167C15.9438 5.44554 15.9702 5.4794 16.0026 5.50763C16.0349 5.5302 16.0614 5.52738 16.0878 5.50198C16.0937 5.49634 16.0967 5.49352 16.1026 5.48787C16.129 5.44836 16.1614 5.40885 16.1878 5.36933C16.1937 5.36369 16.1967 5.35804 16.2025 5.3524Z" fill="#3A3B7B"></path>
      <path d="M9.42701 5.27798C9.40656 5.33162 9.40266 5.37026 9.4121 5.40238C9.42253 5.44606 9.44958 5.46035 9.4863 5.44925C9.8317 5.36727 10.5891 5.59995 10.8695 5.6648C10.9356 5.67842 10.9894 5.59648 10.9443 5.52302C10.8784 5.45188 10.1214 5.1473 9.83253 5.13069C9.7193 5.12455 9.51688 5.09668 9.42701 5.27798Z" fill="#3A3B7B"></path>
      <path d="M12.387 4.29201C12.4238 4.3124 12.4444 4.33185 12.4545 4.35359C12.4697 4.3821 12.4617 4.40182 12.4363 4.41189C12.208 4.51883 11.9041 4.97927 11.7815 5.13806C11.7518 5.17459 11.6832 5.15337 11.6729 5.09329C11.675 5.02537 11.9443 4.5257 12.0946 4.3896C12.1537 4.33647 12.2512 4.23221 12.387 4.29201Z" fill="#3A3B7B"></path>
      <path d="M10.5688 4.06543C10.6131 4.03344 10.659 4.02223 10.6825 4.04302C11.027 4.32577 11.2097 4.77353 11.3228 5.18345C11.327 5.193 11.3273 5.2067 11.3239 5.221C11.3225 5.23322 11.3132 5.24613 11.2984 5.25612C11.2826 5.26714 11.269 5.2705 11.2626 5.261C11.1117 5.06391 10.2494 4.29706 10.5688 4.06543Z" fill="#3A3B7B"></path>
      <path d="M3.27414 8.96762C3.3567 8.90863 3.44646 8.85951 3.54144 8.8214C3.64081 8.79414 3.74673 8.79865 3.84319 8.83429C3.93963 8.86994 4.02138 8.93475 4.07603 9.01894C4.12492 9.10291 4.14404 9.19986 4.13055 9.29519C4.11706 9.39049 4.07166 9.47901 4.00118 9.54743C3.94655 9.60288 3.88453 9.65118 3.81676 9.6911C3.51472 9.87838 3.20998 10.0554 2.90527 10.2427C2.84291 10.2895 2.77677 10.3316 2.70746 10.3684C2.60204 10.4188 2.48157 10.4324 2.36686 10.4066C2.25216 10.3808 2.15045 10.3174 2.07931 10.2273C2.02613 10.1635 1.98125 10.0937 1.94566 10.0195C1.65698 9.43712 1.3576 8.85731 1.07961 8.26468C0.951305 8.00815 0.847059 7.7131 0.745485 7.42834C0.70154 7.3456 0.692958 7.24968 0.721568 7.16096C0.750177 7.07224 0.813721 6.99773 0.898682 6.95328C0.983643 6.90883 1.08332 6.89796 1.17651 6.92295C1.2697 6.94795 1.34905 7.00686 1.39769 7.08713C1.5472 7.27783 1.67955 7.48038 1.7933 7.6926C2.08198 8.20568 2.3573 8.71877 2.63529 9.21648C2.65148 9.24398 2.66933 9.27052 2.68875 9.296C2.89799 9.21157 3.09478 9.10117 3.27414 8.96762Z" fill="#3A3B7B"></path>
      <path d="M6.25891 8.78863C5.5987 9.53004 4.49207 9.34276 3.93609 8.38841C3.54048 7.71112 3.47099 6.59257 4.3317 5.88707C4.51549 5.73936 4.73527 5.63875 4.97053 5.5946C5.25899 5.55491 5.55314 5.60375 5.81094 5.73415C6.06873 5.86455 6.27698 6.06982 6.40594 6.32064C6.87638 7.14159 6.80956 8.1883 6.25891 8.78863ZM5.99162 7.05949C5.92147 6.85775 5.78076 6.68552 5.59334 6.57204C5.48728 6.49949 5.35841 6.46422 5.22844 6.47216C5.09844 6.48011 4.97529 6.53078 4.87966 6.61565C4.49743 6.94148 4.41722 7.7137 4.69521 8.17292C4.73065 8.2478 4.78268 8.31434 4.84771 8.3679C4.91274 8.42146 4.98918 8.46074 5.07168 8.48296C5.15417 8.50521 5.24072 8.50988 5.3253 8.49665C5.40988 8.4834 5.4904 8.4526 5.56128 8.40637C5.76848 8.25218 5.92049 8.03987 5.99617 7.79896C6.07187 7.55803 6.06747 7.30047 5.98361 7.06207L5.99162 7.05949Z" fill="#3A3B7B"></path>
      <path d="M8.95334 7.38269C8.88576 7.39664 8.81593 7.39748 8.74798 7.38513C8.68006 7.37279 8.61536 7.34755 8.55775 7.31086C8.50734 7.28318 8.46394 7.24514 8.43067 7.19943C8.39743 7.15373 8.37515 7.10153 8.36544 7.04656C8.35571 6.99162 8.35883 6.93529 8.3745 6.88162C8.39019 6.82795 8.4181 6.77828 8.45618 6.73619C8.52254 6.6516 8.61673 6.59104 8.72348 6.56431C9.00219 6.48667 9.2891 6.43934 9.57884 6.42321C9.6425 6.4161 9.70699 6.42127 9.76853 6.43842C9.83008 6.45558 9.88743 6.48434 9.93724 6.52307C9.98702 6.56178 10.0283 6.60966 10.0585 6.66388C10.0888 6.7181 10.1074 6.77758 10.1134 6.83882C10.197 7.13962 10.2061 7.45502 10.1402 7.75983C9.8996 8.74496 9.07096 9.0836 8.14076 8.76805C7.87965 8.68368 7.65071 8.52648 7.48321 8.31653C7.2598 8.06369 7.1014 7.76405 7.02077 7.4417C6.95545 7.15465 6.9626 6.85679 7.04166 6.57295C7.12071 6.28911 7.26935 6.02753 7.47518 5.81006C7.67052 5.57369 7.92405 5.38767 8.21294 5.26874C8.39548 5.17217 8.60909 5.14471 8.81169 5.19178C8.85765 5.20398 8.89936 5.22777 8.93252 5.26067C8.96567 5.29357 8.98905 5.33438 9.00024 5.37888C9.01142 5.42337 9.00999 5.46993 8.99611 5.51372C8.98222 5.55751 8.95639 5.59693 8.92129 5.62791C8.85453 5.6859 8.78201 5.73746 8.70476 5.78184C8.46712 5.92708 8.26033 6.11425 8.09532 6.33341C7.98716 6.47523 7.91267 6.63809 7.87711 6.8105C7.84154 6.9829 7.84578 7.1607 7.88951 7.33139C7.95013 7.56412 8.08465 7.77301 8.27441 7.92913C8.86246 8.44224 9.62694 7.94709 9.49329 7.24672C9.29818 7.29291 9.12709 7.34165 8.95334 7.38269Z" fill="#3A3B7B"></path>
      <path d="M12.5458 8.82962C11.6771 9.34273 10.6881 8.82962 10.4716 7.75213C10.3139 6.98249 10.6132 5.90498 11.6611 5.4945C11.884 5.40905 12.1258 5.37905 12.364 5.40728C12.6503 5.45757 12.9129 5.59282 13.1148 5.79396C13.3166 5.9951 13.4477 6.25197 13.4894 6.5284C13.6658 7.44426 13.2648 8.42171 12.5458 8.82962ZM12.8479 7.10305C12.8476 6.88994 12.769 6.68371 12.626 6.52069C12.5495 6.41987 12.439 6.34763 12.3132 6.31627C12.1875 6.28493 12.0543 6.29642 11.9364 6.34881C11.4659 6.54378 11.1345 7.25185 11.2547 7.77266C11.2639 7.85439 11.2916 7.93321 11.3358 8.0036C11.3801 8.07399 11.4398 8.13426 11.5108 8.18021C11.5818 8.22614 11.6625 8.25663 11.747 8.26955C11.8316 8.28245 11.9181 8.27747 12.0005 8.25496C12.2492 8.17158 12.4645 8.01577 12.6164 7.80925C12.7683 7.60274 12.8492 7.35584 12.8479 7.10305Z" fill="#3A3B7B"></path>
      <path d="M14.3679 9.0452C14.3548 9.13909 14.3033 9.22414 14.2249 9.28164C14.1464 9.33912 14.0474 9.36436 13.9495 9.35177C13.8517 9.33918 13.7631 9.2898 13.7032 9.2145C13.6433 9.13922 13.617 9.04416 13.6301 8.95027C13.6432 8.85637 13.6947 8.77133 13.7731 8.71383C13.8516 8.65633 13.9506 8.63111 14.0485 8.6437C14.1463 8.65628 14.2349 8.70564 14.2948 8.78094C14.3547 8.85624 14.381 8.9513 14.3679 9.0452ZM14.1353 5.58436C14.1862 5.50984 14.2607 5.45309 14.3479 5.42258C14.4351 5.39206 14.5303 5.38942 14.6191 5.41504C14.7095 5.43674 14.7893 5.48757 14.8453 5.55903C14.9013 5.63048 14.9299 5.71822 14.9265 5.80756C14.9147 5.95084 14.8924 6.09316 14.8597 6.23342C14.7715 6.70804 14.686 7.18264 14.5924 7.65214C14.5496 7.83942 14.4935 8.019 14.432 8.20884C14.4106 8.26818 14.3749 8.32181 14.3278 8.36534C14.2985 8.39808 14.2611 8.42319 14.219 8.43835C14.1769 8.45353 14.1315 8.45826 14.087 8.45212C14.0425 8.44598 14.0003 8.42917 13.9644 8.40325C13.9284 8.37731 13.8999 8.34309 13.8814 8.30377C13.8496 8.23322 13.8324 8.15741 13.8306 8.08057C13.8306 7.76245 13.8306 7.44177 13.852 7.12107C13.8883 6.66342 13.9598 6.20895 14.0658 5.76138C14.0783 5.70141 14.1018 5.64407 14.1353 5.59206V5.58436Z" fill="#3A3B7B"></path>
      <path fill-rule="evenodd" clip-rule="evenodd" d="M2.14479 11.1067C2.11323 11.1744 2.10457 11.2497 2.12 11.3223C2.13026 11.4179 2.15279 11.512 2.18709 11.6023C2.22991 11.713 2.27783 11.8224 2.33691 11.9572C2.35049 11.9883 2.36469 12.0207 2.37955 12.0547C2.45923 12.2374 2.55919 12.4709 2.69254 12.8088C2.73028 12.9048 2.7638 13.0015 2.79755 13.099C2.81118 13.1383 2.82487 13.1778 2.83887 13.2174C2.88908 13.3582 2.97546 13.4846 3.08997 13.5848C3.13859 13.6399 3.20308 13.68 3.2754 13.7001C3.34913 13.7206 3.42754 13.7193 3.50049 13.6964C3.57343 13.6735 3.6375 13.63 3.68437 13.5717C3.73032 13.5145 3.75765 13.4456 3.76296 13.3736C3.79278 13.2333 3.7826 13.0879 3.73346 12.9527C3.65548 12.7282 3.56664 12.5033 3.46419 12.2834L3.46372 12.2824C3.29519 11.9384 3.12388 11.5967 2.94447 11.2549L2.94313 11.2525C2.8906 11.1634 2.82235 11.0838 2.74142 11.0172C2.68889 10.9578 2.61642 10.9177 2.53639 10.9039C2.45466 10.8898 2.37036 10.904 2.29855 10.944C2.23062 10.9812 2.17677 11.0382 2.14479 11.1067Z" fill="#3A3B7B"></path>
      <path fill-rule="evenodd" clip-rule="evenodd" d="M4.7188 10.2596C4.45455 10.1939 4.17858 10.1843 3.91011 10.2315C3.70218 10.2512 3.49767 10.2972 3.35566 10.3884C3.28343 10.4348 3.22504 10.4944 3.19255 10.5701C3.15989 10.6463 3.15572 10.7334 3.18249 10.8304C3.23136 11.0082 3.29482 11.181 3.35806 11.3533L3.3683 11.3812L3.36855 11.3818C3.55896 11.8823 3.75118 12.3811 3.94515 12.8781C3.96777 12.9565 3.99976 13.032 4.04047 13.1033L4.04123 13.1046C4.09501 13.1932 4.16398 13.2724 4.24524 13.3389C4.28589 13.3755 4.33614 13.4008 4.39064 13.4121C4.44567 13.4235 4.5029 13.4202 4.5561 13.4025C4.60931 13.3848 4.65644 13.3535 4.69235 13.3118C4.72768 13.2709 4.75081 13.2215 4.75931 13.169C4.79437 13.0264 4.78313 12.8769 4.72709 12.7405C4.70961 12.6947 4.69589 12.6478 4.68143 12.5984C4.67661 12.5819 4.67172 12.5652 4.66657 12.5481C5.11058 12.3816 5.58301 12.1576 5.74914 11.6365C5.81419 11.4564 5.81962 11.2615 5.76465 11.0783C5.70964 10.8949 5.59677 10.7324 5.4416 10.6131C5.23042 10.4461 4.98372 10.3254 4.7188 10.2596ZM3.98633 10.8987C3.99507 10.8963 4.00388 10.894 4.01272 10.8919C4.30178 10.8483 4.59752 10.9064 4.8455 11.0555C4.95478 11.1285 4.99955 11.2095 5.00723 11.2875C5.01517 11.3678 4.98475 11.4548 4.92364 11.5385C4.80817 11.6965 4.59746 11.8229 4.40712 11.8465C4.26836 11.5398 4.12744 11.2207 3.98633 10.8987Z" fill="#3A3B7B"></path>
      <path d="M6.48057 9.69812C6.79526 9.55863 7.18506 9.53454 7.49009 9.63262C7.56691 9.65409 7.63355 9.70054 7.67863 9.76403C7.72342 9.82712 7.74409 9.90314 7.73719 9.97915C7.73674 10.0285 7.72412 10.077 7.70038 10.1208C7.67621 10.1654 7.64122 10.2037 7.59836 10.2326C7.5555 10.2614 7.50602 10.28 7.45413 10.2866C7.40221 10.2933 7.34942 10.2878 7.30017 10.2707L7.29643 10.2694L7.29291 10.2676C7.26771 10.255 7.24095 10.2455 7.21326 10.2392L7.21151 10.2389C6.99694 10.1842 6.79454 10.2748 6.72061 10.3862C6.68535 10.4393 6.68098 10.4929 6.71034 10.5416C6.74179 10.5939 6.81893 10.6525 6.97502 10.6942C7.01794 10.7055 7.06195 10.7164 7.10658 10.7275C7.23001 10.7582 7.35828 10.7901 7.48231 10.8342L7.48278 10.8344C8.05499 11.0434 8.26806 11.4761 8.19512 11.8832C8.12296 12.2857 7.77269 12.6521 7.24597 12.7385C7.0543 12.7792 6.85484 12.7713 6.66732 12.7154C6.47934 12.6594 6.30989 12.5571 6.17581 12.4188L6.17232 12.4151C6.12999 12.363 6.10153 12.3018 6.0889 12.2368C6.07729 12.1782 6.08341 12.1176 6.1065 12.0621C6.12946 12.007 6.16828 11.9593 6.21838 11.9246C6.27131 11.8852 6.33511 11.8616 6.40189 11.8566C6.46844 11.8517 6.53504 11.8656 6.59348 11.8966C6.65186 11.9236 6.70615 11.9582 6.75488 11.9992L6.7558 12C6.84202 12.0756 6.94632 12.0954 7.04635 12.0771C7.14783 12.0586 7.24326 12.0009 7.30463 11.9245C7.36561 11.8485 7.39009 11.7582 7.36103 11.6706C7.3318 11.5823 7.24391 11.4834 7.05079 11.4008C7.0003 11.3802 6.94796 11.3636 6.89351 11.3475C6.87883 11.3431 6.8639 11.3388 6.84879 11.3344C6.80853 11.3226 6.7671 11.3106 6.72648 11.2972C6.69851 11.2881 6.67075 11.2794 6.64327 11.2708C6.56815 11.2473 6.49492 11.2244 6.42444 11.1937C6.27104 11.1436 6.13851 11.0474 6.04658 10.9192C5.95427 10.7906 5.90782 10.6368 5.91414 10.4807C5.91464 10.1004 6.1642 9.83838 6.48057 9.69812Z" fill="#3A3B7B"></path>
      <path d="M10.4701 9.65752C10.409 9.62892 10.3416 9.61534 10.2737 9.618C10.2059 9.62069 10.1398 9.63952 10.0814 9.67286C10.0235 9.70596 9.9749 9.7523 9.9401 9.80777C9.90821 9.85449 9.88613 9.90673 9.87512 9.96159C9.86411 10.0164 9.86438 10.0727 9.87588 10.1274C9.88725 10.1977 9.89984 10.266 9.91229 10.3334C9.93289 10.445 9.95293 10.554 9.96615 10.6652L9.96665 10.668C9.99675 10.8424 10.0125 11.0187 10.0139 11.1954L10.0141 11.1979C10.0243 11.3887 9.9566 11.5758 9.82535 11.7195L9.82327 11.7221C9.78056 11.7746 9.72347 11.8147 9.65835 11.8379C9.59325 11.861 9.52273 11.8663 9.45465 11.8532C9.38657 11.8401 9.32364 11.8091 9.27289 11.7636C9.22214 11.7181 9.18553 11.6598 9.16726 11.5955C9.12826 11.4601 9.10569 11.3207 9.09995 11.1803L9.16657 10.1622C9.16756 10.149 9.16868 10.1353 9.16982 10.1215C9.17235 10.0906 9.17495 10.0591 9.17603 10.0298C9.1776 9.98654 9.17625 9.94209 9.16576 9.90002C9.15502 9.85702 9.1346 9.81611 9.09838 9.78128C9.06251 9.7468 9.01409 9.72136 8.95316 9.70404C8.84298 9.67343 8.74982 9.6744 8.67219 9.70602C8.59452 9.73764 8.5413 9.79635 8.50364 9.86417C8.46627 9.93142 8.44226 10.011 8.4241 10.0908C8.41063 10.1499 8.3998 10.2121 8.38952 10.2712C8.38595 10.2916 8.38248 10.3116 8.37896 10.331L8.37887 10.3316C8.32381 10.6558 8.30743 10.9851 8.33002 11.3129C8.33424 11.4901 8.37273 11.6649 8.44356 11.8286C8.52348 12.0397 8.66822 12.2227 8.8587 12.3533C9.04958 12.4842 9.27735 12.5563 9.51188 12.5601C9.7464 12.5639 9.9766 12.4992 10.172 12.3746C10.3671 12.2502 10.5182 12.072 10.6055 11.8634C10.7276 11.5977 10.785 11.3087 10.7731 11.0185C10.766 10.8066 10.7539 10.5931 10.742 10.3807C10.7361 10.2765 10.7303 10.1726 10.725 10.0692C10.7224 9.96561 10.6868 9.86525 10.623 9.78161C10.5835 9.72873 10.531 9.68609 10.4701 9.65752Z" fill="#3A3B7B"></path>
      <path d="M12.6298 11.2539C12.6236 11.2614 12.6171 11.2693 12.6102 11.2774C12.5606 11.0026 12.5146 10.7279 12.4685 10.4527C12.452 10.354 12.4354 10.2549 12.4187 10.156L12.4168 10.145L12.4107 10.1355C12.3992 10.1176 12.3981 10.1 12.3981 10.0625V10.0581L12.3974 10.0539C12.3849 9.97642 12.3484 9.90436 12.2927 9.8471C12.2371 9.79 12.1649 9.75026 12.0855 9.73301C12.0062 9.71424 11.9229 9.71837 11.846 9.74491C11.7693 9.77138 11.7025 9.81896 11.6539 9.88167C11.6134 9.9298 11.5803 9.98318 11.5554 10.0402C11.499 10.1631 11.4422 10.2863 11.3851 10.4098L11.3842 10.4119C11.2418 10.7203 11.0985 11.0307 10.9593 11.3436L10.9589 11.3446C10.8734 11.5474 10.8029 11.7612 10.7326 11.9743C10.7186 12.0168 10.7046 12.0593 10.6904 12.1017C10.665 12.169 10.654 12.2404 10.6578 12.3118C10.6531 12.3757 10.6691 12.4395 10.7035 12.4945C10.7385 12.5506 10.7911 12.5948 10.8536 12.6207C10.9199 12.6486 10.9941 12.6546 11.0643 12.6376C11.1344 12.6206 11.1966 12.5818 11.2412 12.5272C11.2981 12.46 11.3471 12.3867 11.387 12.309C11.5049 12.0776 11.6176 11.8433 11.7298 11.61C11.7732 11.5198 11.8153 11.439 11.8633 11.351C11.8666 11.3619 11.8699 11.3725 11.8734 11.3831C11.9237 11.5955 12.0086 11.799 12.1249 11.9861C12.1469 12.0257 12.1776 12.0604 12.2148 12.0876C12.2524 12.1152 12.2959 12.1346 12.3422 12.1444C12.3884 12.1543 12.4363 12.1543 12.4826 12.1446C12.5288 12.1348 12.5724 12.1154 12.6101 12.088L12.6847 12.0344L13.2635 11.5664L13.2293 11.7758C13.1823 12.0636 13.1357 12.349 13.0861 12.6345C13.0537 12.761 13.0538 12.8932 13.0863 13.0196C13.1004 13.0908 13.1362 13.1564 13.1893 13.2079C13.2428 13.2599 13.3114 13.2951 13.3861 13.3092C13.4608 13.3233 13.5382 13.3155 13.6082 13.2868C13.6772 13.2586 13.7359 13.2114 13.7769 13.1512C13.8723 13.0375 13.9317 12.8999 13.948 12.7548C13.9726 12.5498 14.0004 12.342 14.0281 12.1343C14.0601 11.8948 14.0921 11.6555 14.1191 11.4207L14.1192 11.42C14.1452 11.163 14.1578 10.9049 14.1569 10.6467C14.1626 10.5651 14.1415 10.4838 14.0964 10.4144C14.0511 10.3447 13.9841 10.2905 13.9049 10.2594C13.8224 10.2235 13.7302 10.2139 13.6417 10.2321C13.5537 10.2501 13.4741 10.2946 13.4144 10.359C13.3076 10.4538 13.2075 10.5552 13.1146 10.6626L13.1139 10.6634C13.0125 10.7847 12.9118 10.9084 12.8117 11.0313C12.7508 11.106 12.6901 11.1805 12.6298 11.2539Z" fill="#3A3B7B"></path>
    </g>
    <defs>
      <clipPath id="clip0_212_1131">
        <rect width="15.6917" height="9.68213" fill="white" transform="translate(0.704956 4.03247)"></rect>
      </clipPath>
    </defs>
  </symbol>
  <symbol fill="none" xmlns="http://www.w3.org/2000/svg" viewBox="0 0 17 17" id="logo-second">
    <g clip-path="url(#clip0_212_1124)">
      <path fill-rule="evenodd" clip-rule="evenodd" d="M5.17755 5.4062L1.84363 8.7066C2.51047 9.36676 3.27224 9.92311 4.10278 10.3584C4.33235 10.9612 4.69219 11.5265 5.18229 12.0117C7.02621 13.8371 10.0157 13.8371 11.8596 12.0117C12.3497 11.5265 12.7096 10.9612 12.9391 10.3583C13.7697 9.92311 14.5315 9.36676 15.1983 8.7066L11.8671 5.40889C11.8646 5.40642 11.8621 5.40395 11.8596 5.40149C10.0157 3.57613 7.02621 3.57613 5.18229 5.40149C5.18071 5.40306 5.17913 5.40463 5.17755 5.4062ZM11.5406 10.9538C10.5691 11.2784 9.54917 11.4446 8.52096 11.4446C7.49275 11.4446 6.47289 11.2784 5.50134 10.9538C5.6066 11.0921 5.72282 11.2248 5.85003 11.3507C7.32515 12.811 9.71677 12.811 11.1919 11.3507C11.3191 11.2248 11.4353 11.0921 11.5406 10.9538ZM5.9185 5.99641C6.169 6.16024 6.43536 6.30043 6.71407 6.41473C7.28692 6.64962 7.9009 6.77052 8.52096 6.77052C9.14102 6.77052 9.755 6.64962 10.3278 6.41473C10.6066 6.30043 10.8729 6.16023 11.1234 5.9964C9.66672 4.62426 7.3752 4.62426 5.9185 5.99641Z" fill="#3B4158"></path>
    </g>
    <defs>
      <clipPath id="clip0_212_1124">
        <rect width="13.3547" height="9.34826" fill="white" transform="translate(1.84363 4.03247)"></rect>
      </clipPath>
    </defs>
  </symbol>
  <symbol fill="none" xmlns="http://www.w3.org/2000/svg" viewBox="0 0 18 17" id="logo-six">
    <g clip-path="url(#clip0_212_1151)">
      <path d="M4.68724 5.36792C4.00925 5.36792 3.35903 5.63725 2.87962 6.11666L1.31503 7.68126C0.835614 8.16067 0.566284 8.81089 0.566284 9.48888C0.566284 10.9007 1.71081 12.0453 3.12266 12.0453C3.80065 12.0453 4.45087 11.7759 4.93028 11.2965L6.01252 10.2143C6.01252 10.2142 6.01254 10.2143 6.01252 10.2143L9.1658 7.06098C9.39476 6.83202 9.7053 6.70339 10.0291 6.70339C10.5712 6.70339 11.0308 7.05671 11.1902 7.54564L12.1853 6.55047C11.7313 5.83942 10.9353 5.36792 10.0291 5.36792C9.35112 5.36792 8.7009 5.63725 8.22149 6.11666L3.98597 10.3522C3.757 10.5812 3.44646 10.7098 3.12266 10.7098C2.44837 10.7098 1.90175 10.1632 1.90175 9.48888C1.90175 9.16507 2.03038 8.85453 2.25934 8.62557L3.82393 7.06098C4.0529 6.83202 4.36344 6.70339 4.68724 6.70339C5.22938 6.70339 5.68895 7.05672 5.8483 7.54567L6.84349 6.55049C6.3895 5.83943 5.59345 5.36792 4.68724 5.36792Z" fill="#394149"></path>
      <path d="M9.32779 10.3522C9.09883 10.5812 8.78829 10.7098 8.46448 10.7098C7.92244 10.7098 7.46288 10.3566 7.30349 9.86771L6.30835 10.8629C6.76236 11.5738 7.55837 12.0453 8.46448 12.0453C9.14248 12.0453 9.79269 11.7759 10.2721 11.2965L14.5076 7.06098C14.7366 6.83202 15.0471 6.70339 15.3709 6.70339C16.0452 6.70339 16.5918 7.25 16.5918 7.92429C16.5918 8.2481 16.4632 8.55864 16.2342 8.7876L14.6697 10.3522C14.4407 10.5812 14.1302 10.7098 13.8063 10.7098C13.2643 10.7098 12.8047 10.3565 12.6453 9.8676L11.6502 10.8628C12.1042 11.5738 12.9002 12.0453 13.8063 12.0453C14.4843 12.0453 15.1346 11.7759 15.614 11.2965L17.1786 9.73191C17.658 9.2525 17.9273 8.60229 17.9273 7.92429C17.9273 6.51245 16.7828 5.36792 15.3709 5.36792C14.6929 5.36792 14.0427 5.63725 13.5633 6.11666L9.32779 10.3522Z" fill="#394149"></path>
    </g>
    <defs>
      <clipPath id="clip0_212_1151">
        <rect width="17.3611" height="6.67733" fill="white" transform="translate(0.566284 5.36792)"></rect>
      </clipPath>
    </defs>
  </symbol>
  <symbol fill="none" xmlns="http://www.w3.org/2000/svg" viewBox="0 0 17 17" id="logo-five">
    <g clip-path="url(#clip0_212_1147)">
      <path d="M14.9709 4.64803C14.9709 4.80361 15.0986 4.92973 15.2561 4.92973H15.5413C15.6988 4.92973 15.8265 4.80361 15.8265 4.64803C15.8265 4.49245 15.6988 4.36633 15.5413 4.36633H15.2561C15.0986 4.36633 14.9709 4.49245 14.9709 4.64803Z" fill="#212326"></path>
      <path d="M6.7009 13.3807H8.08625L7.68294 12.9823C7.57599 12.8767 7.43091 12.8173 7.27966 12.8173H6.7009C4.49591 12.8173 2.70842 11.0516 2.70842 8.87353C2.70842 6.69543 4.49591 4.92974 6.7009 4.92973H11.2637C13.4687 4.92973 15.2562 6.69543 15.2562 8.87353C15.2562 11.0516 13.4687 12.8173 11.2637 12.8173H9.55688C9.32997 12.8173 9.11237 12.7283 8.95191 12.5698L8.47943 12.1031C8.21203 11.8389 7.84933 11.6905 7.47116 11.6905H6.7009C5.1259 11.6905 3.84913 10.4293 3.84913 8.87353C3.84913 7.31774 5.1259 6.05653 6.7009 6.05653H11.2637C12.8387 6.05653 14.1155 7.31774 14.1155 8.87353C14.1155 10.4293 12.8387 11.6905 11.2637 11.6905H10.1678C9.94087 11.6905 9.72326 11.6015 9.56281 11.443L9.09031 10.9763C8.8229 10.7121 8.46022 10.5637 8.08205 10.5637H6.7009C5.75592 10.5637 4.98984 9.80699 4.98984 8.87353C4.98984 7.94007 5.75592 7.18333 6.7009 7.18333H11.2637C12.2087 7.18333 12.9748 7.94007 12.9748 8.87353C12.9748 9.79561 12.2273 10.5453 11.2982 10.5634L11.2981 10.5637H10.8807C10.6538 10.5637 10.4362 10.4747 10.2758 10.3162L9.80325 9.84948C9.58385 9.63272 9.30029 9.49392 8.99665 9.45108L8.98233 9.43693H6.7009C6.38591 9.43693 6.13055 9.18469 6.13055 8.87353C6.13055 8.56238 6.38591 8.31013 6.7009 8.31013H11.2637C11.5787 8.31013 11.8341 8.56238 11.8341 8.87353C11.8341 9.18469 11.5787 9.43693 11.2637 9.43693H10.123L10.5263 9.83532C10.6333 9.94097 10.7784 10.0003 10.9296 10.0003H11.2637C11.8937 10.0003 12.4045 9.49584 12.4045 8.87353C12.4045 8.25122 11.8937 7.74673 11.2637 7.74673H6.7009C6.07091 7.74673 5.56019 8.25122 5.56019 8.87353C5.56019 9.49584 6.07091 10.0003 6.7009 10.0003H8.795C9.02191 10.0003 9.23951 10.0894 9.39996 10.2478L9.87247 10.7146C10.1399 10.9787 10.5026 11.1271 10.8807 11.1271H11.4063V11.1228C12.5999 11.0501 13.5452 10.0708 13.5452 8.87353C13.5452 7.62891 12.5237 6.61993 11.2637 6.61993H6.7009C5.44092 6.61993 4.41948 7.62891 4.41948 8.87353C4.41948 10.1182 5.44092 11.1271 6.7009 11.1271H8.08205C8.30896 11.1271 8.52657 11.2162 8.68702 11.3746L9.15952 11.8414C9.42693 12.1055 9.78961 12.2539 10.1678 12.2539H11.2637C13.1537 12.2539 14.6859 10.7405 14.6859 8.87353C14.6859 7.00658 13.1537 5.49313 11.2637 5.49313H6.7009C4.81091 5.49313 3.27877 7.00658 3.27877 8.87353C3.27877 10.7405 4.81091 12.2539 6.7009 12.2539H7.47116C7.69807 12.2539 7.91567 12.343 8.07612 12.5014L8.54863 12.9682C8.81603 13.2323 9.17871 13.3807 9.55688 13.3807H11.2637C13.7837 13.3807 15.8266 11.3628 15.8266 8.87353C15.8266 6.38427 13.7837 4.36633 11.2637 4.36633L6.7009 4.36633C4.18091 4.36633 2.13806 6.38428 2.13806 8.87353C2.13806 11.3628 4.18092 13.3807 6.7009 13.3807Z" fill="#212326"></path>
    </g>
    <defs>
      <clipPath id="clip0_212_1147">
        <rect width="13.6885" height="9.0144" fill="white" transform="translate(2.13806 4.36633)"></rect>
      </clipPath>
    </defs>
  </symbol>
  <symbol fill="none" xmlns="http://www.w3.org/2000/svg" viewBox="0 0 20 17" id="logo-third">
    <g clip-path="url(#clip0_212_1127)">
      <path d="M19.2993 7.26085C19.3013 7.24693 19.3013 7.23285 19.2993 7.21893C19.3012 7.20759 19.3012 7.19602 19.2993 7.18465L19.1633 6.20554C19.1437 6.0884 19.0912 5.97891 19.0118 5.88933L18.9884 5.86266L18.9457 5.82075L16.5907 3.83205L16.6568 3.89682C16.6028 3.83342 16.5349 3.78271 16.4583 3.74843C16.3816 3.71414 16.298 3.69715 16.2138 3.69871H15.4988C15.3825 3.69645 15.2689 3.73269 15.1762 3.80157C15.0789 3.73311 14.9618 3.69705 14.842 3.69871H14.127C14.0332 3.69722 13.9407 3.72003 13.8588 3.76486C13.7769 3.80968 13.7086 3.87492 13.6607 3.95396C13.5868 4.06686 13.559 4.20288 13.5829 4.33494L13.6723 4.95212C13.6131 4.91921 13.5461 4.90214 13.478 4.9026H10.0155C9.89128 4.90336 9.76991 4.93906 9.66576 5.00546C9.56504 5.06726 9.48419 5.15576 9.4326 5.26071L9.16445 5.03594C9.05892 4.94021 8.91962 4.88832 8.77586 4.89117H3.34313C3.21846 4.89339 3.09656 4.92754 2.98951 4.99022C2.84305 5.07426 2.73572 5.21091 2.69027 5.3712L0.964859 11.0287C0.93262 11.1219 0.929448 11.2225 0.955751 11.3175C0.982053 11.4125 1.03664 11.4976 1.11253 11.5621C1.13231 11.5785 1.15307 11.5938 1.17471 11.6078C1.17471 11.6078 1.13973 11.5849 1.1203 11.5659L3.47527 13.5584C3.57489 13.6483 3.70513 13.6986 3.84053 13.6994H9.31602C9.44107 13.6962 9.56305 13.6607 9.66966 13.5965C9.72995 13.5642 9.78389 13.5216 9.82898 13.4708L9.84841 13.4441L9.8795 13.406L9.90281 13.3641L10.1593 13.5813C10.2575 13.6676 10.3849 13.7151 10.5168 13.7146H16.0039C16.1289 13.7105 16.2506 13.6751 16.3576 13.6117C16.4165 13.5775 16.4701 13.5351 16.5169 13.486L16.5363 13.4593L16.5674 13.4213C16.5839 13.3971 16.5983 13.3717 16.6102 13.345C16.6229 13.322 16.6333 13.2977 16.6412 13.2727L18.2151 8.10662V8.0609C18.217 8.04317 18.217 8.02529 18.2151 8.00756V7.97329C18.217 7.96192 18.217 7.95035 18.2151 7.93898C18.2169 7.91489 18.2169 7.8907 18.2151 7.86659H18.7203C18.7642 7.87055 18.8085 7.87055 18.8524 7.86659H18.8874C18.9158 7.85828 18.9432 7.84676 18.969 7.83231H19.0079L19.0778 7.77898L19.1089 7.75611L19.1633 7.68753V7.66469L19.2022 7.59991C19.2 7.58732 19.2 7.57442 19.2022 7.56183C19.2001 7.55564 19.2001 7.54896 19.2022 7.54277C19.2104 7.52044 19.2169 7.4975 19.2216 7.47419C19.2198 7.46668 19.2198 7.45884 19.2216 7.45133C19.2197 7.43998 19.2197 7.42839 19.2216 7.41705C19.2216 7.41705 19.2993 7.26846 19.2993 7.26085Z" fill="black"></path>
      <path d="M8.93514 5.32548C8.95578 5.34377 8.97019 5.36782 8.97643 5.39438C8.98271 5.42095 8.98049 5.44876 8.97013 5.47406L7.24861 11.1278C7.22693 11.1895 7.18258 11.2411 7.12425 11.2725C7.07679 11.3037 7.02186 11.322 6.96491 11.3259H1.49334C1.44661 11.3237 1.40234 11.3047 1.36898 11.2725C1.34914 11.2545 1.33521 11.2312 1.32898 11.2054C1.32275 11.1796 1.3245 11.1526 1.33401 11.1278L3.05942 5.47406C3.0793 5.41155 3.12226 5.35857 3.17989 5.32548C3.22813 5.29659 3.28281 5.27959 3.33922 5.27595H8.81079C8.85715 5.27639 8.90161 5.2941 8.93514 5.32548ZM6.07888 9.98864L7.1087 6.61318H4.22525L3.19931 9.98864H6.07888ZM14.158 5.38262C14.1767 5.40389 14.2 5.42076 14.2263 5.43197C14.2525 5.44318 14.281 5.44845 14.3096 5.44739H15.0207C15.0478 5.44765 15.0745 5.44114 15.0983 5.42847C15.1221 5.41581 15.1422 5.3974 15.1567 5.375C15.1694 5.3575 15.1783 5.3377 15.183 5.31675C15.1876 5.29581 15.188 5.27416 15.1839 5.25309L15.044 4.24731C15.0307 4.20076 15.0068 4.15778 14.9741 4.12159C14.9554 4.10032 14.9321 4.08345 14.9059 4.07224C14.8796 4.06103 14.8511 4.05576 14.8225 4.05682H14.1114C14.0843 4.05656 14.0576 4.06307 14.0338 4.07574C14.01 4.08841 13.9899 4.10681 13.9754 4.12921C13.9482 4.18255 13.9365 4.21683 13.9482 4.24731L14.092 5.25309C14.0993 5.30207 14.1225 5.34745 14.158 5.38262ZM16.4158 4.23969C16.4025 4.19314 16.3786 4.15016 16.3459 4.11397C16.328 4.09278 16.3054 4.07592 16.2797 4.06468C16.2541 4.05345 16.2262 4.04815 16.1982 4.0492H15.4832C15.4565 4.04846 15.4302 4.05479 15.4069 4.06754C15.3837 4.08028 15.3644 4.09896 15.3511 4.12159C15.3252 4.15539 15.314 4.19784 15.32 4.23969L15.4637 5.24547C15.4728 5.29393 15.4957 5.33886 15.5298 5.375C15.5488 5.39586 15.5722 5.41244 15.5984 5.42362C15.6245 5.4348 15.6528 5.4403 15.6814 5.43977H16.3964C16.423 5.44011 16.4491 5.43361 16.4723 5.4209C16.4955 5.4082 16.5149 5.38975 16.5285 5.36739C16.5421 5.35034 16.5515 5.33054 16.5562 5.30945C16.5609 5.28835 16.5607 5.26649 16.5557 5.24547L16.4158 4.23969ZM13.5324 5.7636L13.4624 5.26833H10.0155C9.96136 5.27125 9.909 5.28836 9.86391 5.31786C9.8353 5.33316 9.81038 5.35437 9.79092 5.38002C9.77149 5.40567 9.75794 5.43515 9.75124 5.46644L9.46366 6.41126C9.45218 6.43487 9.44825 6.46136 9.45241 6.4872C9.45659 6.51304 9.46863 6.53703 9.48697 6.55604C9.51974 6.58623 9.56251 6.60384 9.60745 6.60557H13.7966L12.7668 9.98103H8.58929C8.53542 9.98223 8.48296 9.99806 8.43775 10.0267C8.38278 10.061 8.34264 10.1139 8.32504 10.1753L8.03359 11.1202C8.02408 11.1444 8.02158 11.1707 8.02637 11.1963C8.03119 11.2218 8.04308 11.2456 8.06078 11.2649C8.09253 11.2971 8.13563 11.3162 8.18125 11.3182H13.6684C13.7251 11.3135 13.7798 11.2952 13.8277 11.2649C13.8851 11.2333 13.9281 11.1816 13.9482 11.1202L15.5259 5.95409H13.75C13.7218 5.95463 13.6938 5.94951 13.6678 5.93902C13.6417 5.92854 13.6181 5.91291 13.5984 5.89313C13.5663 5.85858 13.5436 5.81666 13.5324 5.77122V5.7636Z" fill="white"></path>
    </g>
    <defs>
      <clipPath id="clip0_212_1127">
        <rect width="18.3627" height="10.016" fill="white" transform="translate(0.93811 3.69861)"></rect>
      </clipPath>
    </defs>
  </symbol>
  <symbol fill="none" xmlns="http://www.w3.org/2000/svg" viewBox="0 0 52 9" id="logo">
    <path d="M6.34895 4.89465L4.5491 7.9772L2.74926 4.89465H6.34895ZM6.83112 4.61914H2.26514L4.5491 8.52244L6.83112 4.61914Z" fill="#263238"></path>
    <path d="M9.47819 1.06065L11.278 4.1432H7.67833L9.47819 1.06065ZM9.47819 0.509644L7.19421 4.41293H11.7621L9.47819 0.509644Z" fill="#263238"></path>
    <path d="M0.0767822 0.509644L1.99181 3.96211L4.08446 0.596336L0.0767822 0.509644Z" fill="#4CAF4F"></path>
    <path d="M4.54913 0.812012L6.55786 4.24521H2.5365L4.54913 0.812012Z" fill="#4CAF4F"></path>
    <path d="M7.07508 4.99487L9.08576 8.52249H4.96875L7.01261 4.99487H7.07508Z" fill="#4CAF4F"></path>
    <path d="M7.5105 4.78088L9.47822 8.25454L11.4733 4.78088H7.5105Z" fill="#4CAF4F"></path>
    <path d="M20.1196 1.06689V7.86563H18.8781L15.9202 3.58654H15.8704V7.86563H14.433V1.06689H15.6945L18.6291 5.34266H18.6888V1.06689H20.1196Z" fill="#263238"></path>
    <path d="M23.6045 7.96522C23.08 7.96522 22.6285 7.85899 22.25 7.64653C21.8738 7.43186 21.5839 7.12866 21.3803 6.73694C21.1767 6.343 21.0749 5.87713 21.0749 5.33934C21.0749 4.81483 21.1767 4.3545 21.3803 3.95835C21.5839 3.5622 21.8705 3.25347 22.2401 3.03215C22.6119 2.81084 23.0479 2.70018 23.548 2.70018C23.8844 2.70018 24.1976 2.75441 24.4875 2.86285C24.7796 2.96908 25.0342 3.12953 25.251 3.34421C25.4701 3.55888 25.6406 3.82888 25.7623 4.15421C25.884 4.47733 25.9449 4.85577 25.9449 5.28955V5.67795H21.6392V4.80155H24.6137C24.6137 4.59794 24.5694 4.41757 24.4809 4.26044C24.3923 4.10331 24.2695 3.98048 24.1124 3.89196C23.9575 3.80122 23.7771 3.75585 23.5713 3.75585C23.3566 3.75585 23.1663 3.80564 23.0003 3.90523C22.8365 4.00261 22.7082 4.13429 22.6152 4.30028C22.5223 4.46405 22.4747 4.64663 22.4725 4.84803V5.68127C22.4725 5.93357 22.5189 6.15156 22.6119 6.33525C22.707 6.51894 22.8409 6.66058 23.0136 6.76017C23.1862 6.85976 23.3909 6.90956 23.6277 6.90956C23.7848 6.90956 23.9287 6.88743 24.0593 6.84316C24.1898 6.7989 24.3016 6.73251 24.3946 6.64398C24.4875 6.55546 24.5583 6.44702 24.607 6.31865L25.915 6.40497C25.8486 6.71923 25.7125 6.99366 25.5067 7.22825C25.3031 7.46063 25.0397 7.64211 24.7166 7.77268C24.3957 7.90104 24.025 7.96522 23.6045 7.96522Z" fill="#263238"></path>
    <path d="M27.9583 2.76658L28.8944 4.54926L29.8538 2.76658H31.3045L29.8272 5.31611L31.3443 7.86563H29.9003L28.8944 6.10287L27.9051 7.86563H26.4445L27.9583 5.31611L26.4976 2.76658H27.9583Z" fill="#263238"></path>
    <path d="M34.2657 7.96522C33.7434 7.96522 33.2941 7.85457 32.9179 7.63325C32.5439 7.40973 32.2562 7.09989 32.0548 6.70374C31.8556 6.30759 31.756 5.85168 31.756 5.33602C31.756 4.81372 31.8567 4.35561 32.0581 3.96167C32.2617 3.56552 32.5505 3.25679 32.9245 3.03547C33.2985 2.81195 33.7434 2.70018 34.259 2.70018C34.7039 2.70018 35.0934 2.78096 35.4276 2.94252C35.7618 3.10408 36.0262 3.33093 36.221 3.62306C36.4157 3.91519 36.5231 4.25823 36.543 4.65217H35.2085C35.1708 4.39766 35.0713 4.19294 34.9097 4.03802C34.7504 3.88089 34.5412 3.80232 34.2823 3.80232C34.0632 3.80232 33.8717 3.86208 33.708 3.98159C33.5464 4.09888 33.4203 4.2704 33.3295 4.49614C33.2388 4.72188 33.1934 4.9952 33.1934 5.31611C33.1934 5.64144 33.2377 5.91808 33.3262 6.14603C33.4169 6.37398 33.5442 6.54771 33.708 6.66722C33.8717 6.78673 34.0632 6.84649 34.2823 6.84649C34.4438 6.84649 34.5888 6.81329 34.7172 6.74689C34.8477 6.6805 34.9551 6.58423 35.0392 6.45808C35.1255 6.32972 35.1819 6.17591 35.2085 5.99664H36.543C36.5209 6.38615 36.4146 6.72919 36.2243 7.02575C36.0362 7.32009 35.7761 7.55026 35.4442 7.71625C35.1122 7.88223 34.7194 7.96522 34.2657 7.96522Z" fill="#263238"></path>
    <path d="M39.7722 7.96522C39.2477 7.96522 38.7962 7.85899 38.4178 7.64653C38.0416 7.43186 37.7516 7.12866 37.548 6.73694C37.3444 6.343 37.2426 5.87713 37.2426 5.33934C37.2426 4.81483 37.3444 4.3545 37.548 3.95835C37.7516 3.5622 38.0382 3.25347 38.4078 3.03215C38.7796 2.81084 39.2156 2.70018 39.7158 2.70018C40.0522 2.70018 40.3653 2.75441 40.6553 2.86285C40.9474 2.96908 41.2019 3.12953 41.4188 3.34421C41.6379 3.55888 41.8083 3.82888 41.93 4.15421C42.0517 4.47733 42.1126 4.85577 42.1126 5.28955V5.67795H37.807V4.80155H40.7814C40.7814 4.59794 40.7371 4.41757 40.6486 4.26044C40.5601 4.10331 40.4373 3.98048 40.2801 3.89196C40.1252 3.80122 39.9448 3.75585 39.739 3.75585C39.5243 3.75585 39.334 3.80564 39.168 3.90523C39.0043 4.00261 38.8759 4.13429 38.783 4.30028C38.69 4.46405 38.6424 4.64663 38.6402 4.84803V5.68127C38.6402 5.93357 38.6867 6.15156 38.7796 6.33525C38.8748 6.51894 39.0087 6.66058 39.1813 6.76017C39.3539 6.85976 39.5587 6.90956 39.7955 6.90956C39.9526 6.90956 40.0964 6.88743 40.227 6.84316C40.3576 6.7989 40.4694 6.73251 40.5623 6.64398C40.6553 6.55546 40.7261 6.44702 40.7748 6.31865L42.0827 6.40497C42.0163 6.71923 41.8802 6.99366 41.6744 7.22825C41.4708 7.46063 41.2074 7.64211 40.8843 7.77268C40.5634 7.90104 40.1927 7.96522 39.7722 7.96522Z" fill="#263238"></path>
    <path d="M44.4497 4.91774V7.86563H43.0355V2.76658H44.3833V3.66622H44.443C44.5559 3.36966 44.7451 3.13506 45.0107 2.96244C45.2763 2.7876 45.5983 2.70018 45.9767 2.70018C46.3308 2.70018 46.6396 2.77764 46.9029 2.93256C47.1663 3.08748 47.371 3.3088 47.5171 3.5965C47.6631 3.882 47.7362 4.22282 47.7362 4.61897V7.86563H46.322V4.87127C46.3242 4.55921 46.2445 4.31577 46.083 4.14093C45.9214 3.96388 45.699 3.87536 45.4157 3.87536C45.2254 3.87536 45.0572 3.9163 44.9111 3.99819C44.7673 4.08007 44.6544 4.19958 44.5725 4.35671C44.4928 4.51163 44.4519 4.69864 44.4497 4.91774Z" fill="#263238"></path>
    <path d="M51.5629 2.76658V3.82888H48.4922V2.76658H51.5629ZM49.1894 1.54493H50.6036V6.29874C50.6036 6.42931 50.6235 6.53111 50.6633 6.60415C50.7031 6.67497 50.7585 6.72476 50.8293 6.75353C50.9023 6.7823 50.9864 6.79669 51.0816 6.79669C51.148 6.79669 51.2144 6.79116 51.2808 6.78009C51.3472 6.76681 51.3981 6.75685 51.4335 6.75021L51.6559 7.80256C51.5851 7.82469 51.4855 7.85014 51.3571 7.87891C51.2288 7.90989 51.0727 7.92871 50.8891 7.93535C50.5482 7.94862 50.2495 7.90325 49.9927 7.79924C49.7382 7.69522 49.5401 7.53366 49.3985 7.31456C49.2569 7.09546 49.1872 6.81882 49.1894 6.48464V1.54493Z" fill="#263238"></path>
  </symbol>
  <symbol fill="none" xmlns="http://www.w3.org/2000/svg" viewBox="0 0 6 7" id="round">
  <path d="M4.4214 4.5177L5.24597 3.69314C5.34376 3.59535 5.34376 3.4368 5.24597 3.33901L4.4214 2.51445M5.17262 3.51607L1.5 3.51607" stroke="white" stroke-width="0.367253" stroke-linecap="round" />
</symbol>
  <symbol fill="none" xmlns="http://www.w3.org/2000/svg" viewBox="0 0 17 17" id="member">
    <g clip-path="url(#clip0_212_1407)">
      <path d="M11.3478 4.12007C11.1036 4.11963 10.8606 4.1534 10.6258 4.22038L10.6258 4.22037L10.6239 4.22094C10.5496 4.24309 10.4717 4.25025 10.3946 4.24199C10.3176 4.23374 10.2429 4.21024 10.1751 4.17286L10.0945 4.31909L10.1751 4.17286C10.1072 4.13548 10.0474 4.08498 9.99923 4.02428C9.95106 3.96358 9.91544 3.8939 9.89445 3.81931C9.87346 3.74471 9.86752 3.66668 9.87697 3.58977C9.88642 3.51286 9.91108 3.43859 9.94952 3.3713C9.98795 3.304 10.0394 3.24503 10.1008 3.19781C10.1623 3.15058 10.2325 3.11605 10.3074 3.09623L10.3074 3.09625L10.3104 3.0954C10.6477 2.99938 10.9967 2.95096 11.3474 2.95154L11.3482 2.95154C12.1362 2.94925 12.9057 3.18987 13.552 3.64064C14.1984 4.09141 14.6901 4.73041 14.9602 5.47066C15.2304 6.21091 15.2658 7.01643 15.0617 7.77753C14.8576 8.53864 14.4239 9.21836 13.8196 9.72414L13.6159 9.89468L13.858 10.0042C14.8507 10.4535 15.7049 11.1604 16.3318 12.0516L16.3326 12.0526C16.3771 12.1149 16.4088 12.1855 16.4259 12.2601C16.4429 12.3348 16.4449 12.4122 16.4318 12.4876C16.4187 12.5631 16.3907 12.6352 16.3495 12.6998C16.3083 12.7644 16.2547 12.8201 16.1917 12.8637L16.1917 12.8637L16.1897 12.8651C16.0923 12.9348 15.9754 12.9721 15.8556 12.9717C15.7619 12.9711 15.6697 12.9483 15.5866 12.905C15.5035 12.8618 15.4319 12.7994 15.3777 12.723C14.9225 12.0772 14.3189 11.5501 13.6177 11.186C12.9165 10.8219 12.138 10.6313 11.3479 10.6305H11.3477C11.1927 10.6305 11.0441 10.5689 10.9345 10.4593C10.825 10.3498 10.7634 10.2012 10.7634 10.0462C10.7634 9.89125 10.825 9.74264 10.9345 9.63307C11.0441 9.5235 11.1927 9.46194 11.3477 9.46194C12.0561 9.46194 12.7354 9.18054 13.2363 8.67964C13.7372 8.17874 14.0186 7.49938 14.0186 6.79101C14.0186 6.08263 13.7372 5.40327 13.2363 4.90237C12.7354 4.4015 12.0561 4.12011 11.3478 4.12007ZM11.3478 4.12007C11.3479 4.12007 11.3479 4.12007 11.348 4.12007L11.3477 4.28701V4.12007C11.3477 4.12007 11.3478 4.12007 11.3478 4.12007ZM8.71743 9.7244L8.51466 9.89498L8.75607 10.0042C9.74876 10.4535 10.603 11.1604 11.2299 12.0516L11.2298 12.0517L11.2349 12.0582C11.2836 12.1206 11.3191 12.1923 11.3393 12.2688L11.5007 12.2262L11.3393 12.2688C11.3594 12.3453 11.3639 12.4252 11.3522 12.5035C11.3406 12.5818 11.3132 12.6569 11.2717 12.7243C11.2302 12.7916 11.1754 12.8499 11.1107 12.8955C11.0459 12.941 10.9726 12.973 10.8952 12.9893C10.8178 13.0057 10.7378 13.0062 10.6602 12.9907C10.5825 12.9753 10.5089 12.9442 10.4436 12.8994C10.3784 12.8546 10.3229 12.797 10.2806 12.7301L10.2807 12.73L10.2761 12.7235C9.82182 12.0764 9.2184 11.5482 8.51689 11.1836C7.81538 10.819 7.03639 10.6287 6.24578 10.6287C5.45517 10.6287 4.67618 10.819 3.97466 11.1836C3.27315 11.5482 2.66974 12.0764 2.21544 12.7235L2.21506 12.724C2.16166 12.8007 2.09045 12.8633 2.00755 12.9064C1.92465 12.9496 1.83252 12.972 1.73906 12.9717L1.73803 12.9717C1.61818 12.9721 1.50122 12.9348 1.40371 12.8651L1.40291 12.8645C1.27651 12.7753 1.19067 12.6396 1.1642 12.4872C1.13773 12.3348 1.1728 12.1781 1.26171 12.0514C1.88865 11.1603 2.74284 10.4534 3.73548 10.0042L3.97689 9.89498L3.77412 9.7244C3.17148 9.21743 2.73931 8.53742 2.5362 7.77654C2.33309 7.01566 2.36887 6.21072 2.63869 5.47086C2.9085 4.73101 3.3993 4.09201 4.04454 3.64051C4.68978 3.18901 5.45825 2.94684 6.24578 2.94684C7.0333 2.94684 7.80177 3.18901 8.44702 3.64051C9.09226 4.09201 9.58306 4.73101 9.85287 5.47086C10.1227 6.21072 10.1585 7.01566 9.95535 7.77654C9.75224 8.53742 9.32007 9.21743 8.71743 9.7244ZM1.30664 13.0009C1.43262 13.091 1.58372 13.1391 1.73858 13.1386C1.85903 13.139 1.97776 13.1101 2.08461 13.0545C2.19146 12.9989 2.28323 12.9182 2.35206 12.8194C2.79096 12.1943 3.37392 11.684 4.05165 11.3318C4.72938 10.9795 5.48197 10.7956 6.24578 10.7956C7.00959 10.7956 7.76217 10.9795 8.4399 11.3318C9.11764 11.684 9.7006 12.1943 10.1395 12.8194L1.30664 13.0009ZM4.02498 5.30712C3.73149 5.74635 3.57484 6.26275 3.57484 6.79101C3.57484 7.49938 3.85625 8.17874 4.35714 8.67964C4.85804 9.18054 5.5374 9.46194 6.24578 9.46194C6.77404 9.46194 7.29043 9.30529 7.72967 9.01181C8.1689 8.71832 8.51124 8.30118 8.7134 7.81313C8.91555 7.32508 8.96845 6.78804 8.86539 6.26993C8.76233 5.75182 8.50795 5.27591 8.13441 4.90237C7.76087 4.52884 7.28496 4.27445 6.76685 4.1714C6.24874 4.06834 5.7117 4.12123 5.22366 4.32339C4.73561 4.52554 4.31846 4.86788 4.02498 5.30712Z" fill="#4CAF4F" stroke="#4CAF4F" stroke-width="0.333867"></path>
    </g>
    <defs>
      <clipPath id="clip0_212_1407">
        <rect width="16.0256" height="16.0256" fill="white" transform="translate(0.737061 0.0301514)"></rect>
      </clipPath>
    </defs>
  </symbol>
  <symbol fill="none" xmlns="http://www.w3.org/2000/svg" viewBox="0 0 22 20" id="membership">
    <path d="M21.8403 13.1845C21.8403 16.5035 19.1497 19.1941 15.8307 19.1941L6.81634 19.1941C5.89439 19.1941 5.14701 18.4467 5.14701 17.5248L5.14701 6.17329C5.14701 4.3294 6.64178 2.83463 8.48567 2.83463L20.171 2.83463C21.0929 2.83463 21.8403 3.58202 21.8403 4.50396L21.8403 13.1845Z" fill="#E8F5E9"></path>
    <path d="M8.14849 3.83618C6.95617 3.83618 5.98552 4.81571 5.98552 6.01311C5.98552 6.77059 6.37449 7.43942 6.96185 7.82928C6.25244 8.06648 5.63859 8.50982 5.18835 9.0898C4.93944 8.89833 4.6613 8.74435 4.36146 8.63401C4.81614 8.29646 5.11327 7.75422 5.11327 7.14479C5.11327 6.12925 4.29193 5.29791 3.28255 5.29791C2.27316 5.29791 1.45183 6.12925 1.45183 7.14479C1.45183 7.75457 1.7492 8.29706 2.20426 8.63461C0.999481 9.07919 0.139038 10.2432 0.139038 11.613V12.5753C0.139161 12.6486 0.168504 12.7189 0.220531 12.7706C0.272558 12.8224 0.342957 12.8512 0.416313 12.851H4.63804C4.64828 12.8521 4.65851 12.8527 4.66874 12.8526H11.6285C11.6387 12.8527 11.6491 12.8521 11.6592 12.851H15.8812C16.033 12.8503 16.1559 12.7272 16.1563 12.5753V11.613C16.1563 10.2432 15.2973 9.07919 14.0932 8.63449C14.5482 8.29706 14.8456 7.75444 14.8456 7.14467C14.8456 6.12913 14.0243 5.29779 13.0149 5.29779C12.0055 5.29779 11.1842 6.12913 11.1842 7.14467C11.1842 7.7541 11.4814 8.29643 11.9361 8.63389C11.6356 8.74448 11.3574 8.89896 11.1081 9.0909C10.6581 8.51057 10.0451 8.06662 9.3357 7.82928C9.92291 7.43942 10.312 6.77059 10.312 6.01311C10.312 4.81571 9.34088 3.83618 8.14856 3.83618H8.14849ZM8.14849 4.38852C9.04024 4.38852 9.75913 5.11223 9.75913 6.01311C9.75913 6.90694 9.05145 7.62362 8.16957 7.63511C8.16255 7.63511 8.15564 7.63412 8.14849 7.63412C8.14134 7.63412 8.13456 7.63511 8.12741 7.63511C7.24553 7.62376 6.53833 6.90697 6.53833 6.01311C6.53833 5.11211 7.25661 4.38852 8.14837 4.38852H8.14849ZM3.28258 5.85021C3.99014 5.85021 4.56097 6.42448 4.56097 7.14476C4.56097 7.86021 3.99752 8.43202 3.29662 8.43978C3.29194 8.43978 3.28738 8.43929 3.28257 8.43929C3.27788 8.43929 3.27332 8.43978 3.26851 8.43978C2.56762 8.43201 2.00417 7.86008 2.00417 7.14476C2.00417 6.42452 2.575 5.85021 3.28256 5.85021H3.28258ZM13.0147 5.85021C13.7223 5.85021 14.2931 6.42448 14.2931 7.14476C14.2931 7.86021 13.7297 8.43202 13.0288 8.43978C13.0241 8.43978 13.0195 8.43929 13.0147 8.43929C13.01 8.43929 13.0055 8.43978 13.0007 8.43978C12.2998 8.43201 11.7363 7.86008 11.7363 7.14476C11.7363 6.42452 12.3071 5.85021 13.0147 5.85021H13.0147ZM8.12734 8.18741C8.13437 8.18753 8.14128 8.1884 8.14843 8.1884C8.15545 8.1884 8.16236 8.18741 8.16951 8.18741C9.93808 8.19875 11.3535 9.62632 11.3535 11.4134L11.3534 12.3001H4.94375V11.4134C4.94375 9.62616 6.35874 8.19877 8.12709 8.18741H8.12734ZM3.26143 8.99275C3.26846 8.99287 3.27536 8.99373 3.28252 8.99373C3.28967 8.99373 3.29645 8.99275 3.3036 8.99275C3.90179 8.99755 4.44772 9.20382 4.88242 9.5489C4.57136 10.0993 4.39148 10.7346 4.39148 11.4135V12.2981H0.69115V11.613C0.69115 10.1606 1.83306 9.00408 3.26137 8.99262L3.26143 8.99275ZM12.9936 8.99275C13.0007 8.99287 13.0075 8.99373 13.0147 8.99373C13.0218 8.99373 13.0286 8.99275 13.0357 8.99275C14.464 9.00409 15.606 10.1608 15.606 11.6131V12.2981H11.9037L11.9036 11.4135C11.9036 10.7349 11.7242 10.1001 11.4138 9.54988C11.8486 9.20431 12.3949 8.99754 12.9936 8.99275H12.9936Z" fill="#103E13"></path>
  </symbol>
  <symbol fill="none" xmlns="http://www.w3.org/2000/svg" viewBox="0 0 23 20" id="national">
    <path d="M22.2345 13.1845C22.2345 16.5035 19.5439 19.1941 16.2249 19.1941L7.2105 19.1941C6.28856 19.1941 5.54117 18.4467 5.54117 17.5248L5.54117 6.17329C5.54117 4.3294 7.03594 2.83463 8.87984 2.83463L20.5652 2.83463C21.4871 2.83463 22.2345 3.58202 22.2345 4.50396L22.2345 13.1845Z" fill="#E8F5E9"></path>
    <path d="M9.51967 6.84467C9.4155 6.84467 9.33081 6.76012 9.33081 6.65581V6.33486C9.33081 6.23068 9.41536 6.146 9.51967 6.146C9.62384 6.146 9.70853 6.23055 9.70853 6.33486V6.65581C9.70853 6.76012 9.62385 6.84467 9.51967 6.84467Z" fill="#103E13"></path>
    <path d="M8.7256 6.84467C8.62143 6.84467 8.53674 6.76012 8.53674 6.65581V6.33486C8.53674 6.23068 8.62129 6.146 8.7256 6.146C8.82978 6.146 8.91446 6.23055 8.91446 6.33486V6.65581C8.91433 6.76012 8.82991 6.84467 8.7256 6.84467Z" fill="#103E13"></path>
    <path d="M7.93166 6.84467C7.82748 6.84467 7.7428 6.76012 7.7428 6.65581V6.33486C7.7428 6.23068 7.82735 6.146 7.93166 6.146C8.03583 6.146 8.12052 6.23055 8.12052 6.33486V6.65581C8.12052 6.76012 8.03597 6.84467 7.93166 6.84467Z" fill="#103E13"></path>
    <path d="M9.51967 8.15716C9.4155 8.15716 9.33081 8.07261 9.33081 7.9683V7.64748C9.33081 7.5433 9.41536 7.45862 9.51967 7.45862C9.62384 7.45862 9.70853 7.54317 9.70853 7.64748V7.9683C9.70853 8.07261 9.62385 8.15716 9.51967 8.15716Z" fill="#103E13"></path>
    <path d="M8.7256 8.15716C8.62143 8.15716 8.53674 8.07261 8.53674 7.9683V7.64748C8.53674 7.5433 8.62129 7.45862 8.7256 7.45862C8.82978 7.45862 8.91446 7.54317 8.91446 7.64748V7.9683C8.91433 8.07261 8.82991 8.15716 8.7256 8.15716Z" fill="#103E13"></path>
    <path d="M7.93166 8.15716C7.82748 8.15716 7.7428 8.07261 7.7428 7.9683V7.64748C7.7428 7.5433 7.82735 7.45862 7.93166 7.45862C8.03583 7.45862 8.12052 7.54317 8.12052 7.64748V7.9683C8.12052 8.07261 8.03597 8.15716 7.93166 8.15716Z" fill="#103E13"></path>
    <path d="M9.51967 9.46967C9.4155 9.46967 9.33081 9.38512 9.33081 9.28081V8.95986C9.33081 8.85568 9.41536 8.771 9.51967 8.771C9.62384 8.771 9.70853 8.85555 9.70853 8.95986V9.28081C9.70853 9.38512 9.62385 9.46967 9.51967 9.46967Z" fill="#103E13"></path>
    <path d="M8.7256 9.46967C8.62143 9.46967 8.53674 9.38512 8.53674 9.28081V8.95986C8.53674 8.85568 8.62129 8.771 8.7256 8.771C8.82978 8.771 8.91446 8.85555 8.91446 8.95986V9.28081C8.91433 9.38512 8.82991 9.46967 8.7256 9.46967Z" fill="#103E13"></path>
    <path d="M7.93166 9.46967C7.82748 9.46967 7.7428 9.38512 7.7428 9.28081V8.95986C7.7428 8.85568 7.82735 8.771 7.93166 8.771C8.03583 8.771 8.12052 8.85555 8.12052 8.95986V9.28081C8.12052 9.38512 8.03597 9.46967 7.93166 9.46967Z" fill="#103E13"></path>
    <path d="M9.51967 10.7819C9.4155 10.7819 9.33081 10.6974 9.33081 10.5931V10.2721C9.33081 10.1679 9.41536 10.0833 9.51967 10.0833C9.62384 10.0833 9.70853 10.1678 9.70853 10.2721V10.5931C9.70853 10.6974 9.62385 10.7819 9.51967 10.7819Z" fill="#103E13"></path>
    <path d="M8.7256 10.7819C8.62143 10.7819 8.53674 10.6974 8.53674 10.5931V10.2721C8.53674 10.1679 8.62129 10.0833 8.7256 10.0833C8.82978 10.0833 8.91446 10.1678 8.91446 10.2721V10.5931C8.91433 10.6974 8.82991 10.7819 8.7256 10.7819Z" fill="#103E13"></path>
    <path d="M7.93166 10.7819C7.82748 10.7819 7.7428 10.6974 7.7428 10.5931V10.2721C7.7428 10.1679 7.82735 10.0833 7.93166 10.0833C8.03583 10.0833 8.12052 10.1678 8.12052 10.2721V10.5931C8.12052 10.6974 8.03597 10.7819 7.93166 10.7819Z" fill="#103E13"></path>
    <path d="M9.51967 12.0944C9.4155 12.0944 9.33081 12.0099 9.33081 11.9056V11.5847C9.33081 11.4806 9.41536 11.3959 9.51967 11.3959C9.62384 11.3959 9.70853 11.4804 9.70853 11.5847V11.9056C9.70853 12.0097 9.62385 12.0944 9.51967 12.0944Z" fill="#103E13"></path>
    <path d="M8.7256 12.0944C8.62143 12.0944 8.53674 12.0099 8.53674 11.9056V11.5847C8.53674 11.4806 8.62129 11.3959 8.7256 11.3959C8.82978 11.3959 8.91446 11.4804 8.91446 11.5847V11.9056C8.91433 12.0097 8.82991 12.0944 8.7256 12.0944Z" fill="#103E13"></path>
    <path d="M7.93166 12.0944C7.82748 12.0944 7.7428 12.0099 7.7428 11.9056L7.74293 11.5847C7.74293 11.4806 7.82748 11.3959 7.93179 11.3959C8.03596 11.3959 8.12065 11.4804 8.12065 11.5847V11.9056C8.12052 12.0097 8.03597 12.0944 7.93166 12.0944Z" fill="#103E13"></path>
    <path d="M2.53654 13.4005C2.53654 13.5047 2.62109 13.5894 2.7254 13.5894H14.2263C14.3305 13.5894 14.4152 13.5048 14.4152 13.4005C14.4152 13.2963 14.3307 13.2116 14.2263 13.2116H13.8772V7.78922C13.8772 7.68505 13.7927 7.60036 13.6884 7.60036L10.6049 7.60049V3.69121C10.6049 3.6251 10.5704 3.56399 10.514 3.52974C10.4578 3.49537 10.3874 3.49326 10.329 3.52368L6.82324 5.34893C6.76068 5.38146 6.7217 5.44599 6.7217 5.51645V8.93113H3.32894C3.22476 8.93113 3.14008 9.01569 3.14008 9.11999V13.2117H2.72497C2.6208 13.2115 2.53638 13.2961 2.53638 13.4004L2.53654 13.4005ZM10.6049 10.4608H13.4997V13.2118L10.6049 13.2117V10.4608ZM10.6049 9.14844H13.4997V10.0833L10.6049 10.0831V9.14844ZM10.6049 7.97801H13.4997V8.771H10.6049V7.97801ZM7.09922 5.63113L10.2271 4.00251V13.2115H7.09922V5.63113ZM4.45139 11.7032C4.45139 11.3113 4.76194 10.9923 5.14374 10.9923C5.52553 10.9923 5.83622 11.3112 5.83622 11.7032V13.2117H4.45139V11.7032ZM3.51778 9.30879H6.72165V13.2117H6.21393V11.7032C6.21393 11.103 5.73402 10.6147 5.14374 10.6147C4.55372 10.6147 4.07382 11.1029 4.07382 11.7032V13.2117H3.51778V9.30879Z" fill="#103E13"></path>
  </symbol>
  <symbol fill="none" xmlns="http://www.w3.org/2000/svg" viewBox="0 0 17 17" id="payment">
    <path d="M2.72529 5.89359V6.06053H2.89222H14.9114H15.0784V5.89359V5.14239C15.0784 4.76607 14.9289 4.40516 14.6628 4.13906C14.3967 3.87295 14.0357 3.72346 13.6594 3.72346H4.14422C3.7679 3.72346 3.40699 3.87295 3.14089 4.13906C2.87479 4.40516 2.72529 4.76607 2.72529 5.14239V5.89359ZM15.0784 6.89519V6.72826H14.9114H2.89222H2.72529V6.89519V11.6528C2.72529 12.0291 2.87479 12.39 3.14089 12.6561C3.40699 12.9222 3.7679 13.0717 4.14422 13.0717H13.6594C14.0357 13.0717 14.3967 12.9222 14.6628 12.6561C14.9289 12.39 15.0784 12.0291 15.0784 11.6528V6.89519ZM2.05756 5.14239C2.05756 4.58898 2.2774 4.05822 2.66873 3.6669C3.06005 3.27557 3.59081 3.05573 4.14422 3.05573H13.6594C14.2128 3.05573 14.7436 3.27557 15.1349 3.6669C15.5262 4.05822 15.7461 4.58898 15.7461 5.14239V11.6528C15.7461 12.2062 15.5262 12.737 15.1349 13.1283C14.7436 13.5196 14.2128 13.7395 13.6594 13.7395H4.14422C3.59081 13.7395 3.06005 13.5196 2.66873 13.1283C2.2774 12.737 2.05756 12.2062 2.05756 11.6528V5.14239ZM11.4058 10.0669H12.9082C12.9968 10.0669 13.0817 10.1021 13.1443 10.1647C13.2069 10.2273 13.2421 10.3122 13.2421 10.4008C13.2421 10.4893 13.2069 10.5743 13.1443 10.6369C13.0817 10.6995 12.9968 10.7347 12.9082 10.7347H11.4058C11.3173 10.7347 11.2324 10.6995 11.1697 10.6369C11.1071 10.5743 11.072 10.4893 11.072 10.4008C11.072 10.3122 11.1071 10.2273 11.1697 10.1647C11.2324 10.1021 11.3173 10.0669 11.4058 10.0669Z" fill="#4CAF4F" stroke="#4CAF4F" stroke-width="0.333867"></path>
  </symbol>
  <symbol fill="none" xmlns="http://www.w3.org/2000/svg" viewBox="0 0 7 7" id="send">
    <g clip-path="url(#clip0_2302_587)">
      <path fill-rule="evenodd" clip-rule="evenodd" d="M6.34977 1.10777C6.41778 1.17579 6.44083 1.27676 6.40905 1.36755L4.65625 6.37555C4.62233 6.47245 4.5327 6.53884 4.43011 6.54302C4.32753 6.54721 4.23279 6.48835 4.19109 6.39453L3.2286 4.22893L1.06301 3.26645C0.969191 3.22475 0.910331 3.13001 0.914516 3.02742C0.918701 2.92484 0.985083 2.8352 1.08199 2.80129L6.08999 1.04849C6.18078 1.01671 6.28175 1.03975 6.34977 1.10777ZM3.71697 4.09468L4.39221 5.61398L5.57388 2.23777L3.71697 4.09468ZM5.21976 1.88365L1.84356 3.06533L3.36285 3.74057L5.21976 1.88365Z" fill="white"></path>
    </g>
    <defs>
      <clipPath id="clip0_2302_587">
        <rect width="6.0096" height="6.0096" fill="white" transform="translate(0.663818 0.784058)"></rect>
      </clipPath>
    </defs>
  </symbol>
  <symbol fill="none" xmlns="http://www.w3.org/2000/svg" viewBox="0 0 11 12" id="twitter">
    <path opacity="0.1" fill-rule="evenodd" clip-rule="evenodd" d="M0.13916 5.72721C0.13916 2.77698 2.53079 0.385345 5.48102 0.385345C8.43126 0.385345 10.8229 2.77698 10.8229 5.72721C10.8229 8.67744 8.43126 11.0691 5.48102 11.0691C2.53079 11.0691 0.13916 8.67744 0.13916 5.72721Z" fill="white"></path>
    <path fill-rule="evenodd" clip-rule="evenodd" d="M5.321 4.72727L5.33221 4.91211L5.14539 4.88948C4.46534 4.80271 3.87123 4.50848 3.3668 4.01431L3.12019 3.76912L3.05667 3.95018C2.92215 4.35382 3.00809 4.78008 3.28833 5.06677C3.43779 5.22521 3.40417 5.24784 3.14635 5.15353C3.05667 5.12336 2.9782 5.10072 2.97073 5.11204C2.94457 5.13845 3.03425 5.48172 3.10524 5.61752C3.20239 5.80614 3.40043 5.99098 3.61715 6.10037L3.80024 6.18713L3.58352 6.19091C3.37427 6.19091 3.3668 6.19468 3.38922 6.2739C3.46395 6.51909 3.75914 6.77938 4.08795 6.89255L4.31961 6.97176L4.11784 7.09247C3.81892 7.266 3.46769 7.36408 3.11645 7.37162C2.94831 7.37539 2.81006 7.39048 2.81006 7.4018C2.81006 7.43952 3.26591 7.65077 3.53121 7.73376C4.32709 7.97895 5.27243 7.87333 5.98237 7.45461C6.4868 7.1566 6.99123 6.56436 7.22663 5.99098C7.35367 5.68542 7.48071 5.12713 7.48071 4.8593C7.48071 4.68577 7.49192 4.66314 7.70117 4.45567C7.82447 4.33496 7.94031 4.20293 7.96273 4.1652C8.00009 4.09353 7.99635 4.09353 7.80579 4.15766C7.48819 4.27083 7.44335 4.25574 7.60028 4.08599C7.71611 3.96527 7.85437 3.74648 7.85437 3.68235C7.85437 3.67104 7.79832 3.6899 7.7348 3.72385C7.66754 3.76157 7.51808 3.81816 7.40598 3.85211L7.20421 3.91623L7.02112 3.79175C6.92024 3.72385 6.77825 3.6484 6.70352 3.62577C6.51295 3.57296 6.2215 3.5805 6.04962 3.64086C5.58256 3.81061 5.28737 4.24819 5.321 4.72727Z" fill="white"></path>
  </symbol>
  <symbol fill="none" xmlns="http://www.w3.org/2000/svg" viewBox="0 0 11 12" id="youtube">
    <path opacity="0.1" fill-rule="evenodd" clip-rule="evenodd" d="M0.164795 5.72721C0.164795 2.77698 2.55643 0.385345 5.50666 0.385345C8.45689 0.385345 10.8485 2.77698 10.8485 5.72721C10.8485 8.67744 8.45689 11.0691 5.50666 11.0691C2.55643 11.0691 0.164795 8.67744 0.164795 5.72721Z" fill="white"></path>
    <path fill-rule="evenodd" clip-rule="evenodd" d="M7.73272 3.89079C7.9779 3.95807 8.17098 4.1563 8.23651 4.40804C8.35558 4.86428 8.35558 5.81624 8.35558 5.81624C8.35558 5.81624 8.35558 6.76816 8.23651 7.22444C8.17098 7.47618 7.9779 7.67441 7.73272 7.74172C7.28841 7.86395 5.50659 7.86395 5.50659 7.86395C5.50659 7.86395 3.72477 7.86395 3.28042 7.74172C3.03525 7.67441 2.84216 7.47618 2.77664 7.22444C2.65759 6.76816 2.65759 5.81624 2.65759 5.81624C2.65759 5.81624 2.65759 4.86428 2.77664 4.40804C2.84216 4.1563 3.03525 3.95807 3.28042 3.89079C3.72477 3.76852 5.50659 3.76852 5.50659 3.76852C5.50659 3.76852 7.28841 3.76852 7.73272 3.89079ZM4.97241 5.01494V6.79556L6.3969 5.90529L4.97241 5.01494Z" fill="white"></path>
  </symbol>
  <symbol xmlns="http://www.w3.org/2000/svg" viewBox="0 0 6 7" id="right">
    <path d="M4.4214 4.5177L5.24597 3.69314C5.34376 3.59535 5.34376 3.4368 5.24597 3.33901L4.4214 2.51445M5.17262 3.51607L1.5 3.51607" stroke-width="0.367253" stroke-linecap="round"></path>
  </symbol>
  <symbol fill="none" xmlns="http://www.w3.org/2000/svg" viewBox="0 0 17 17" id="logo-first-color">
    <rect x="0.292725" y="0.893921" width="16.0256" height="16.0256" rx="2.67093" fill="#E8F5E9"></rect>
    <g clip-path="url(#clip0_212_1586)">
      <path fill-rule="evenodd" clip-rule="evenodd" d="M3.74931 0.958862C5.59319 0.958862 7.08798 2.45363 7.08798 4.29753V0.958862H10.4266C12.2705 0.958862 13.7653 2.45363 13.7653 4.29753C13.7653 6.14141 12.2705 7.63619 10.4266 7.63619C12.2705 7.63619 13.7653 9.13098 13.7653 10.9749C13.7653 11.8904 13.3968 12.7199 12.7999 13.3231L12.7874 13.3357L12.7764 13.3467C12.1731 13.9444 11.343 14.3135 10.4266 14.3135C9.51655 14.3135 8.6915 13.9494 8.08924 13.3588C8.08143 13.3512 8.07362 13.3434 8.06584 13.3357C8.05853 13.3284 8.05125 13.321 8.044 13.3136C7.45269 12.7113 7.08798 11.8856 7.08798 10.9749C7.08798 12.8187 5.59319 14.3135 3.74931 14.3135C1.90542 14.3135 0.410645 12.8187 0.410645 10.9749V7.63619H3.74931C1.90542 7.63619 0.410645 6.14141 0.410645 4.29753C0.410645 2.45363 1.90542 0.958862 3.74931 0.958862ZM6.42024 4.29753C6.42024 5.77265 5.22443 6.96846 3.74931 6.96846V1.6266C5.22443 1.6266 6.42024 2.82241 6.42024 4.29753ZM13.0976 10.9749C13.0976 9.49974 11.9018 8.30393 10.4266 8.30393C8.95152 8.30393 7.75571 9.49974 7.75571 10.9749H13.0976ZM1.07838 8.30393V10.9749C1.07838 12.45 2.27419 13.6458 3.74931 13.6458C5.22443 13.6458 6.42024 12.45 6.42024 10.9749V8.30393H1.07838ZM7.75571 6.96846V1.6266H10.4266C11.9018 1.6266 13.0976 2.82241 13.0976 4.29753C13.0976 5.77265 11.9018 6.96846 10.4266 6.96846H7.75571Z" fill="#5417D7"></path>
    </g>
    <defs>
      <clipPath id="clip0_212_1586">
        <rect width="13.3547" height="13.3547" fill="white" transform="translate(0.410645 0.958862)"></rect>
      </clipPath>
    </defs>
  </symbol>
  <symbol fill="none" xmlns="http://www.w3.org/2000/svg" viewBox="0 0 64 10" id="logo-footer">
    <path d="M7.84237 5.52L5.61717 9.33103L3.39199 5.52H7.84237ZM8.43849 5.17938H2.79346L5.61717 10.0051L8.43849 5.17938Z" fill="white"></path>
    <path d="M11.7112 0.779916L13.9364 4.59095H9.48598L11.7112 0.779916ZM11.7112 0.0986938L8.88745 4.92441H14.5349L11.7112 0.0986938Z" fill="white"></path>
    <path d="M0.0880127 0.0986938L2.4556 4.36705L5.0428 0.205873L0.0880127 0.0986938Z" fill="#4CAF4F"></path>
    <path d="M5.61728 0.472595L8.10072 4.71714H3.12903L5.61728 0.472595Z" fill="#4CAF4F"></path>
    <path d="M8.74021 5.64386L11.2261 10.0051H6.13611L8.66297 5.64386H8.74021Z" fill="#4CAF4F"></path>
    <path d="M9.27832 5.37946L11.7111 9.67401L14.1776 5.37946H9.27832Z" fill="#4CAF4F"></path>
    <path d="M24.8674 0.787598V9.19303H23.3325L19.6756 3.9027H19.614V9.19303H17.8369V0.787598H19.3965L23.0246 6.07383H23.0985V0.787598H24.8674Z" fill="white"></path>
    <path d="M29.1758 9.31616C28.5274 9.31616 27.9692 9.18482 27.5013 8.92215C27.0362 8.65675 26.6777 8.28189 26.426 7.7976C26.1743 7.31056 26.0484 6.73461 26.0484 6.06972C26.0484 5.42126 26.1743 4.85214 26.426 4.36237C26.6777 3.8726 27.0321 3.49091 27.489 3.21729C27.9487 2.94368 28.4877 2.80687 29.1061 2.80687C29.522 2.80687 29.9091 2.87391 30.2676 3.00798C30.6287 3.13931 30.9434 3.33768 31.2115 3.60309C31.4824 3.8685 31.6931 4.2023 31.8436 4.60452C31.9941 5.00399 32.0693 5.47187 32.0693 6.00816V6.48835H26.7461V5.40484H30.4235C30.4235 5.15311 30.3688 4.93012 30.2593 4.73585C30.1499 4.54159 29.998 4.38973 29.8038 4.28028C29.6122 4.1681 29.3893 4.11201 29.1348 4.11201C28.8694 4.11201 28.6341 4.17357 28.4289 4.2967C28.2264 4.41709 28.0677 4.57989 27.9528 4.7851C27.8379 4.98758 27.779 5.21331 27.7763 5.4623V6.49246C27.7763 6.80438 27.8338 7.07389 27.9487 7.30099C28.0663 7.52809 28.2319 7.7032 28.4453 7.82633C28.6587 7.94945 28.9118 8.01102 29.2046 8.01102C29.3988 8.01102 29.5767 7.98365 29.7381 7.92893C29.8995 7.87421 30.0377 7.79212 30.1526 7.68268C30.2676 7.57323 30.3551 7.43916 30.4153 7.28047L32.0324 7.38718C31.9503 7.77571 31.782 8.11499 31.5275 8.40502C31.2758 8.69232 30.9502 8.91668 30.5507 9.07811C30.154 9.23681 29.6957 9.31616 29.1758 9.31616Z" fill="white"></path>
    <path d="M34.5585 2.88896L35.7159 5.09292L36.902 2.88896H38.6956L36.8692 6.04099L38.7448 9.19303H36.9595L35.7159 7.01369L34.4928 9.19303H32.687L34.5585 6.04099L32.7527 2.88896H34.5585Z" fill="white"></path>
    <path d="M42.3565 9.31616C41.7108 9.31616 41.1554 9.17935 40.6902 8.90573C40.2278 8.62938 39.8721 8.24632 39.6231 7.75655C39.3769 7.26678 39.2537 6.70314 39.2537 6.06562C39.2537 5.41989 39.3782 4.85351 39.6272 4.36647C39.8789 3.8767 40.236 3.49501 40.6984 3.2214C41.1608 2.94505 41.7108 2.80687 42.3483 2.80687C42.8983 2.80687 43.3798 2.90674 43.793 3.10648C44.2062 3.30622 44.5331 3.58667 44.7739 3.94784C45.0147 4.30901 45.1474 4.73312 45.172 5.22015H43.5221C43.4756 4.90549 43.3525 4.6524 43.1527 4.46087C42.9557 4.2666 42.6972 4.16947 42.377 4.16947C42.1062 4.16947 41.8695 4.24335 41.667 4.3911C41.4673 4.53611 41.3113 4.74817 41.1991 5.02725C41.0869 5.30634 41.0309 5.64425 41.0309 6.04099C41.0309 6.44321 41.0856 6.78522 41.195 7.06705C41.3072 7.34887 41.4645 7.56366 41.667 7.71141C41.8695 7.85916 42.1062 7.93304 42.377 7.93304C42.5768 7.93304 42.756 7.89199 42.9147 7.80991C43.0761 7.72782 43.2088 7.6088 43.3128 7.45284C43.4195 7.29415 43.4893 7.10398 43.5221 6.88236H45.172C45.1446 7.36392 45.0133 7.78802 44.778 8.15466C44.5454 8.51857 44.2239 8.80313 43.8135 9.00834C43.4031 9.21355 42.9174 9.31616 42.3565 9.31616Z" fill="white"></path>
    <path d="M49.1644 9.31616C48.5159 9.31616 47.9577 9.18482 47.4899 8.92215C47.0247 8.65675 46.6663 8.28189 46.4146 7.7976C46.1628 7.31056 46.037 6.73461 46.037 6.06972C46.037 5.42126 46.1628 4.85214 46.4146 4.36237C46.6663 3.8726 47.0206 3.49091 47.4776 3.21729C47.9372 2.94368 48.4762 2.80687 49.0946 2.80687C49.5105 2.80687 49.8977 2.87391 50.2561 3.00798C50.6173 3.13931 50.9319 3.33768 51.2001 3.60309C51.471 3.8685 51.6816 4.2023 51.8321 4.60452C51.9826 5.00399 52.0579 5.47187 52.0579 6.00816V6.48835H46.7347V5.40484H50.4121C50.4121 5.15311 50.3573 4.93012 50.2479 4.73585C50.1385 4.54159 49.9866 4.38973 49.7923 4.28028C49.6008 4.1681 49.3778 4.11201 49.1233 4.11201C48.8579 4.11201 48.6226 4.17357 48.4174 4.2967C48.2149 4.41709 48.0562 4.57989 47.9413 4.7851C47.8264 4.98758 47.7676 5.21331 47.7648 5.4623V6.49246C47.7648 6.80438 47.8223 7.07389 47.9372 7.30099C48.0549 7.52809 48.2204 7.7032 48.4338 7.82633C48.6473 7.94945 48.9003 8.01102 49.1931 8.01102C49.3874 8.01102 49.5652 7.98365 49.7267 7.92893C49.8881 7.87421 50.0263 7.79212 50.1412 7.68268C50.2561 7.57323 50.3437 7.43916 50.4039 7.28047L52.0209 7.38718C51.9388 7.77571 51.7706 8.11499 51.5161 8.40502C51.2644 8.69232 50.9388 8.91668 50.5393 9.07811C50.1426 9.23681 49.6843 9.31616 49.1644 9.31616Z" fill="white"></path>
    <path d="M54.9472 5.54849V9.19303H53.1988V2.88896H54.8651V4.0012H54.939C55.0786 3.63455 55.3125 3.34452 55.6408 3.1311C55.9692 2.91495 56.3673 2.80687 56.8352 2.80687C57.2729 2.80687 57.6546 2.90264 57.9802 3.09417C58.3058 3.2857 58.5589 3.55931 58.7395 3.91501C58.9201 4.26797 59.0104 4.68934 59.0104 5.17911V9.19303H57.262V5.49103C57.2647 5.10523 57.1662 4.80426 56.9665 4.5881C56.7668 4.36921 56.4918 4.25976 56.1416 4.25976C55.9062 4.25976 55.6983 4.31038 55.5177 4.41162C55.3399 4.51286 55.2003 4.66061 55.0991 4.85487C55.0006 5.04641 54.95 5.27761 54.9472 5.54849Z" fill="white"></path>
    <path d="M63.7415 2.88896V4.2023H59.9451V2.88896H63.7415ZM60.807 1.3786H62.5554V7.25584C62.5554 7.41727 62.58 7.54314 62.6293 7.63343C62.6785 7.72098 62.7469 7.78255 62.8345 7.81812C62.9248 7.85369 63.0288 7.87147 63.1464 7.87147C63.2285 7.87147 63.3106 7.86463 63.3927 7.85095C63.4748 7.83454 63.5377 7.82222 63.5815 7.81401L63.8564 9.11505C63.7689 9.14241 63.6458 9.17388 63.4871 9.20945C63.3284 9.24775 63.1355 9.27101 62.9084 9.27922C62.487 9.29564 62.1176 9.23954 61.8002 9.11095C61.4856 8.98235 61.2407 8.78261 61.0656 8.51173C60.8905 8.24085 60.8043 7.89883 60.807 7.48568V1.3786Z" fill="white"></path>
  </symbol>
</svg>
 